<?xml version="1.0" standalone="no"?>
<!DOCTYPE svg PUBLIC "-//W3C//DTD SVG 20010904//EN"
 "http://www.w3.org/TR/2001/REC-SVG-20010904/DTD/svg10.dtd">
<svg version="1.0" xmlns="http://www.w3.org/2000/svg"
 width="512.000000pt" height="512.000000pt" viewBox="0 0 512.000000 512.000000"
 preserveAspectRatio="xMidYMid meet">

<g transform="translate(0.000000,512.000000) scale(0.100000,-0.100000)"
fill="#000000" stroke="none">
<path d="M2352 5020 c-44 -27 -56 -61 -76 -205 -9 -66 -19 -135 -23 -152 l-5
-33 -469 0 c-380 0 -476 -3 -502 -14 -50 -22 -556 -492 -573 -532 -11 -27 -14
-125 -14 -522 l0 -488 -170 -26 c-189 -28 -211 -38 -230 -107 -15 -53 -12
-727 3 -771 20 -59 57 -74 236 -100 l161 -23 0 -489 c0 -397 3 -495 14 -522
17 -40 523 -510 573 -532 26 -11 122 -14 502 -14 l469 0 5 -32 c4 -18 14 -87
23 -153 20 -144 32 -178 76 -205 32 -19 50 -20 411 -20 415 0 421 1 452 60 9
17 25 92 36 168 11 75 22 147 25 160 l4 22 473 0 c431 0 475 2 504 18 48 26
541 480 561 516 16 29 17 137 17 1536 0 1399 -1 1507 -17 1536 -20 36 -513
490 -561 517 -29 15 -73 17 -504 17 l-473 0 -4 23 c-3 12 -14 84 -25 159 -11
76 -27 151 -36 168 -31 59 -37 60 -452 60 -361 0 -379 -1 -411 -20z m761 -233
c9 -62 17 -122 17 -135 l0 -22 -370 0 -371 0 6 33 c10 63 35 222 35 230 0 4
150 7 333 7 l333 0 17 -113z m1302 -497 c121 -110 235 -216 253 -235 l32 -35
0 -1460 0 -1460 -32 -35 c-18 -19 -132 -125 -253 -235 l-220 -200 -1431 0
-1431 0 -139 127 c-76 69 -190 173 -251 230 l-113 105 0 1468 0 1468 113 105
c61 57 175 161 251 230 l139 127 1431 0 1431 0 220 -200z m-3725 -1730 c0
-269 -3 -370 -11 -370 -14 0 -205 29 -236 36 l-23 4 0 330 c0 182 1 330 3 331
17 4 228 37 245 38 l22 1 0 -370z m2440 -2092 c0 -13 -8 -73 -17 -135 l-17
-113 -333 0 c-183 0 -333 3 -333 8 0 7 -25 166 -35 230 l-6 32 371 0 370 0 0
-22z"/>
<path d="M1430 3968 c-52 -27 -78 -60 -90 -114 -12 -52 -12 -2536 0 -2588 12
-54 38 -87 90 -113 l44 -23 1291 0 1291 0 44 23 c30 14 53 36 67 62 l23 40 0
1305 0 1305 -23 39 c-14 25 -39 48 -66 63 l-44 23 -1291 0 -1292 0 -44 -22z
m820 -125 c1 -58 52 -329 65 -349 19 -30 71 -54 115 -54 l30 0 0 -65 c0 -39 6
-78 15 -95 15 -30 61 -60 90 -60 13 0 15 -21 15 -145 0 -132 2 -147 20 -165
29 -29 74 -26 99 6 19 24 21 40 21 165 l0 139 45 0 45 0 0 -145 c0 -132 2
-147 20 -165 29 -29 74 -26 99 6 19 24 21 40 21 165 0 121 2 139 16 139 28 0
73 33 89 66 8 18 15 59 15 93 l0 61 30 0 c47 0 97 25 114 58 9 17 25 93 36
169 11 76 23 148 26 161 l4 22 383 -2 382 -3 0 -1285 0 -1285 -382 -3 -383 -2
-4 22 c-3 13 -15 85 -26 161 -11 76 -27 152 -36 169 -17 33 -67 58 -114 58
l-30 0 0 61 c0 34 -7 75 -15 93 -16 33 -61 66 -89 66 -14 0 -16 18 -16 139 0
125 -2 141 -21 165 -25 32 -70 35 -99 6 -18 -18 -20 -33 -20 -165 l0 -145 -45
0 -45 0 0 139 c0 125 -2 141 -21 165 -25 32 -70 35 -99 6 -18 -18 -20 -33 -20
-165 0 -124 -2 -145 -15 -145 -29 0 -75 -30 -90 -60 -9 -17 -15 -56 -15 -95
l0 -65 -30 0 c-44 0 -96 -24 -115 -54 -13 -20 -64 -291 -65 -348 0 -5 -171 -8
-380 -8 -366 0 -380 1 -390 20 -7 12 -9 145 -8 387 l3 368 165 25 c91 14 175
31 187 38 30 17 53 63 53 107 l0 35 49 0 c101 0 155 29 167 89 l6 30 144 3
c131 3 145 5 165 25 12 11 22 33 22 48 0 15 -10 37 -22 48 -20 20 -34 22 -166
25 l-145 3 0 39 0 39 145 3 c132 3 146 5 166 25 27 27 27 69 0 96 -20 20 -34
22 -165 25 l-144 3 -6 30 c-12 60 -66 89 -167 89 l-49 0 0 35 c0 44 -23 90
-53 107 -12 7 -96 24 -187 38 l-165 25 -3 368 c-1 242 1 375 8 387 10 19 24
20 390 20 209 0 380 -3 380 -7z m880 -15 c0 -13 -8 -73 -17 -135 l-17 -113
-333 0 c-183 0 -333 3 -333 8 0 7 -25 166 -35 230 l-6 32 371 0 370 0 0 -22z
m-200 -428 l0 -40 -165 0 -165 0 0 40 0 40 165 0 165 0 0 -40z m-1310 -488
l115 -18 0 -334 0 -334 -115 -18 c-63 -9 -123 -17 -132 -18 -17 0 -18 24 -18
370 0 346 1 370 18 370 9 -1 69 -9 132 -18z m340 -352 l0 -170 -40 0 -40 0 0
170 0 170 40 0 40 0 0 -170z m970 -840 l0 -40 -165 0 -165 0 0 40 0 40 165 0
165 0 0 -40z m183 -293 c9 -62 17 -122 17 -135 l0 -22 -370 0 -371 0 6 33 c10
63 35 222 35 230 0 4 150 7 333 7 l333 0 17 -113z"/>
<path d="M3380 3023 c-44 -7 -144 -45 -184 -71 -105 -66 -186 -191 -207 -320
-51 -307 226 -583 532 -532 370 63 521 509 264 779 -104 109 -265 167 -405
144z m145 -148 c150 -39 246 -162 246 -315 0 -152 -96 -276 -246 -315 -147
-38 -298 33 -367 172 -28 58 -33 77 -33 143 1 123 61 227 164 284 83 45 149
53 236 31z"/>
<path d="M3371 2726 c-77 -78 -94 -100 -94 -125 0 -42 17 -59 79 -77 30 -8 54
-19 54 -23 0 -4 -22 -29 -50 -56 -39 -38 -50 -56 -50 -81 0 -38 27 -64 66 -64
24 0 49 20 137 108 90 90 107 112 107 138 0 39 -22 59 -82 74 -27 7 -48 15
-48 18 0 2 18 24 40 48 42 46 47 62 29 97 -16 29 -28 37 -64 37 -25 0 -47 -17
-124 -94z"/>
</g>
</svg>
