<?xml version="1.0" standalone="no"?>
<!DOCTYPE svg PUBLIC "-//W3C//DTD SVG 20010904//EN"
 "http://www.w3.org/TR/2001/REC-SVG-20010904/DTD/svg10.dtd">
<svg version="1.0" xmlns="http://www.w3.org/2000/svg"
 width="512.000000pt" height="512.000000pt" viewBox="0 0 512.000000 512.000000"
 preserveAspectRatio="xMidYMid meet">

<g transform="translate(0.000000,512.000000) scale(0.100000,-0.100000)"
fill="#000000" stroke="none">
<path d="M2360 5109 c-818 -93 -1466 -732 -1576 -1554 -19 -143 -14 -403 10
-534 60 -326 202 -625 404 -856 179 -203 194 -223 242 -320 61 -125 77 -184
94 -360 18 -177 39 -235 113 -316 61 -65 119 -104 186 -124 l42 -12 5 -254 c6
-280 8 -295 71 -357 18 -19 49 -42 70 -52 26 -14 38 -27 42 -50 22 -108 119
-222 237 -279 l75 -36 185 0 185 0 75 36 c46 22 94 55 124 85 47 48 116 170
116 206 0 10 16 26 38 37 43 22 107 88 125 129 8 17 14 117 17 281 l5 254 40
12 c63 19 105 44 162 97 94 90 127 171 138 344 15 249 83 402 270 605 265 287
408 575 477 959 17 99 17 440 0 540 -20 112 -68 291 -102 375 -109 275 -298
541 -511 720 -388 326 -877 478 -1359 424z m394 -174 c556 -74 1026 -414 1266
-917 217 -457 214 -963 -11 -1413 -73 -147 -159 -269 -286 -406 -199 -215
-281 -394 -304 -664 -6 -66 -15 -139 -21 -163 -14 -54 -75 -124 -136 -154
l-47 -23 -655 0 c-729 0 -687 -4 -768 69 -60 54 -73 92 -88 248 -16 165 -40
261 -98 384 -56 118 -104 188 -207 299 -297 323 -440 660 -455 1075 -14 352
78 674 275 965 340 505 941 779 1535 700z m316 -4000 l0 -85 -510 0 -510 0 0
85 0 85 510 0 510 0 0 -85z m0 -314 c0 -54 -3 -62 -31 -85 l-31 -26 -448 0
-448 0 -31 26 c-28 23 -31 31 -31 85 l0 59 510 0 510 0 0 -59z m-190 -292 c0
-19 -53 -86 -87 -109 -58 -40 -102 -49 -233 -49 -131 0 -175 9 -233 49 -34 23
-87 90 -87 109 0 8 96 11 320 11 224 0 320 -3 320 -11z"/>
<path d="M2388 4667 c-185 -57 -338 -208 -400 -397 -19 -58 -22 -93 -26 -332
l-4 -266 -45 -7 c-132 -20 -239 -115 -278 -248 -14 -48 -15 -126 -13 -623 l3
-569 26 -56 c37 -79 90 -133 167 -171 l67 -33 675 0 675 0 67 33 c77 38 130
92 167 171 l26 56 3 569 c2 497 1 575 -13 623 -33 114 -115 200 -223 233 -35
11 -72 20 -82 20 -17 0 -18 18 -22 268 -4 239 -7 274 -26 332 -58 178 -205
330 -375 390 -97 35 -267 38 -369 7z m303 -167 c78 -27 123 -56 181 -117 100
-108 118 -181 118 -490 l0 -223 -84 0 -84 0 -4 243 c-4 267 -6 280 -69 352
-122 139 -349 99 -428 -74 -13 -29 -16 -83 -19 -278 l-4 -243 -84 0 -84 0 0
223 c0 304 18 381 113 484 118 129 291 176 448 123z m-74 -344 l28 -24 3 -231
3 -231 -91 0 -91 0 3 231 3 231 28 24 c16 13 41 24 57 24 16 0 41 -11 57 -24z
m608 -675 c48 -22 69 -44 90 -94 13 -31 15 -112 15 -574 0 -501 -2 -541 -19
-578 -22 -49 -48 -73 -98 -91 -56 -20 -1250 -20 -1306 0 -50 18 -76 42 -98 91
-17 37 -19 77 -19 578 0 462 2 543 15 574 21 50 42 72 90 94 37 17 80 19 665
19 585 0 628 -2 665 -19z"/>
<path d="M2473 3315 c-67 -18 -118 -51 -167 -105 -62 -69 -81 -121 -81 -225 0
-79 3 -97 28 -145 l29 -55 -23 -142 c-19 -117 -21 -148 -11 -180 19 -62 48
-100 99 -130 47 -28 50 -28 213 -28 163 0 166 0 213 28 51 30 80 68 99 130 10
32 8 63 -11 180 l-23 142 29 55 c25 48 28 66 28 145 0 78 -4 97 -28 147 -72
146 -243 226 -394 183z m152 -174 c109 -49 134 -158 63 -265 l-31 -48 26 -158
c15 -87 24 -165 21 -173 -8 -21 -37 -27 -144 -27 -107 0 -136 6 -144 27 -3 8
6 86 21 173 l26 158 -31 48 c-53 79 -55 156 -5 215 30 35 94 69 133 69 14 0
43 -9 65 -19z"/>
<path d="M335 4585 c-28 -28 -32 -70 -10 -102 23 -33 408 -243 445 -243 43 0
80 39 80 84 0 47 -20 62 -242 184 -202 112 -231 120 -273 77z"/>
<path d="M4505 4505 c-104 -58 -200 -115 -212 -127 -50 -47 -12 -138 57 -138
37 0 422 210 445 243 37 53 -2 127 -67 127 -23 0 -90 -32 -223 -105z"/>
<path d="M25 3385 c-32 -31 -32 -75 -1 -112 l24 -28 239 -3 c259 -2 277 1 301
52 17 33 9 69 -20 96 -21 19 -34 20 -270 20 l-249 0 -24 -25z"/>
<path d="M4552 3390 c-29 -27 -37 -63 -20 -96 24 -51 42 -54 301 -52 l239 3
24 28 c31 37 31 81 -1 112 l-24 25 -249 0 c-236 0 -249 -1 -270 -20z"/>
<path d="M540 2306 c-112 -63 -210 -122 -217 -132 -33 -45 12 -134 68 -134 28
0 417 213 442 242 41 49 3 138 -60 138 -17 0 -110 -46 -233 -114z"/>
<path d="M4295 2395 c-30 -29 -33 -83 -7 -113 25 -29 413 -242 441 -242 12 0
36 13 52 29 34 34 38 78 12 109 -27 31 -416 242 -447 242 -15 0 -38 -11 -51
-25z"/>
</g>
</svg>
