<?xml version="1.0" standalone="no"?>
<!DOCTYPE svg PUBLIC "-//W3C//DTD SVG 20010904//EN"
 "http://www.w3.org/TR/2001/REC-SVG-20010904/DTD/svg10.dtd">
<svg version="1.0" xmlns="http://www.w3.org/2000/svg"
 width="512.000000pt" height="512.000000pt" viewBox="0 0 512.000000 512.000000"
 preserveAspectRatio="xMidYMid meet">

<g transform="translate(0.000000,512.000000) scale(0.100000,-0.100000)"
fill="#000000" stroke="none">
<path d="M78 5019 c-67 -35 -96 -124 -62 -192 22 -44 181 -204 226 -228 33
-17 59 -19 218 -19 l180 0 0 -90 0 -90 -167 0 c-93 0 -184 -5 -203 -10 -54
-15 -256 -222 -265 -272 -18 -98 47 -178 145 -178 55 0 73 10 155 91 l71 69
454 -2 454 -3 8 -41 c6 -26 21 -52 44 -75 l35 -34 1157 -5 c798 -4 1166 -9
1187 -16 120 -44 205 -115 254 -212 112 -222 13 -479 -222 -576 -52 -21 -55
-21 -1247 -27 -1180 -5 -1196 -5 -1290 -27 -301 -69 -555 -207 -765 -417 -213
-214 -352 -471 -416 -775 -32 -150 -33 -439 -1 -586 66 -305 206 -566 420
-778 216 -214 470 -351 778 -418 98 -22 111 -22 1294 -25 1127 -3 1197 -2
1230 14 42 22 80 76 80 114 l0 29 458 0 458 0 59 -61 c62 -63 121 -99 165 -99
49 0 108 36 129 79 26 50 27 91 2 139 -24 46 -198 217 -235 232 -15 5 -106 10
-207 10 l-179 0 0 90 0 90 168 0 c92 0 183 5 202 10 54 15 256 222 265 272 18
98 -47 178 -145 178 -55 0 -73 -10 -155 -91 l-71 -69 -454 2 -455 3 -6 38 c-4
26 -18 51 -43 75 l-36 37 -1158 5 c-1257 6 -1167 1 -1279 59 -97 49 -182 172
-203 293 -27 154 47 323 178 407 111 71 6 65 1327 71 1184 5 1190 6 1288 28
617 139 1057 582 1189 1196 31 146 31 436 0 582 -132 612 -572 1055 -1191
1196 -95 22 -104 22 -1296 25 -1132 3 -1202 2 -1235 -14 -42 -22 -80 -76 -80
-114 l0 -29 -458 0 -458 0 -59 61 c-97 98 -160 119 -237 78z m3772 -303 c101
-24 212 -62 285 -99 287 -143 518 -403 618 -697 49 -144 62 -231 61 -410 -1
-150 -4 -176 -32 -282 -117 -448 -464 -785 -923 -894 -68 -16 -174 -18 -1269
-24 -1340 -6 -1234 0 -1400 -82 -67 -34 -103 -61 -170 -128 -94 -94 -139 -163
-175 -267 -117 -339 33 -713 350 -869 172 -84 78 -78 1273 -82 l1062 -3 0
-249 0 -250 -1037 0 c-695 0 -1068 4 -1128 11 -397 49 -758 305 -935 664 -96
196 -125 324 -124 550 1 170 12 242 60 383 77 231 250 460 455 605 138 98 354
183 523 206 51 7 453 11 1189 11 728 0 1134 4 1177 11 145 23 265 81 376 182
257 235 303 625 109 916 -82 125 -224 235 -360 280 -119 39 -183 41 -1231 41
l-1014 0 0 250 0 251 1093 -4 c1004 -3 1098 -4 1167 -21z m-2562 -228 l3 -88
-176 0 -175 0 0 90 0 90 173 -2 172 -3 3 -87z m2892 -3858 l0 -90 -172 2 -173
3 -3 88 -3 87 176 0 175 0 0 -90z"/>
</g>
</svg>
