<?xml version="1.0" standalone="no"?>
<!DOCTYPE svg PUBLIC "-//W3C//DTD SVG 20010904//EN"
 "http://www.w3.org/TR/2001/REC-SVG-20010904/DTD/svg10.dtd">
<svg version="1.0" xmlns="http://www.w3.org/2000/svg"
 width="512.000000pt" height="512.000000pt" viewBox="0 0 512.000000 512.000000"
 preserveAspectRatio="xMidYMid meet">

<g transform="translate(0.000000,512.000000) scale(0.100000,-0.100000)"
fill="#000000" stroke="none">
<path d="M3692 4594 c-21 -14 -22 -23 -22 -130 l0 -114 -158 0 c-183 0 -192
-4 -192 -81 l0 -44 -233 -233 c-144 -144 -240 -232 -252 -232 -12 0 -213 -194
-555 -535 -294 -294 -538 -535 -542 -535 -3 0 -41 29 -84 65 l-79 66 -465 -3
-465 -3 -57 -28 c-64 -32 -111 -80 -142 -146 -20 -44 -21 -61 -21 -391 l0
-345 28 -57 c32 -64 80 -111 146 -142 46 -21 52 -21 1120 -24 1181 -3 1121 -6
1121 56 0 35 -18 52 -285 273 -115 95 -248 204 -294 242 l-83 70 516 516 c452
452 516 520 516 546 0 24 15 45 78 108 l78 77 152 0 152 0 0 -114 c0 -107 1
-116 22 -130 34 -24 1372 -24 1406 0 l22 15 0 619 0 619 -22 15 c-20 14 -103
16 -703 16 -600 0 -683 -2 -703 -16z m1308 -634 l0 -530 -605 0 -605 0 0 530
0 530 605 0 605 0 0 -530z m-1330 0 l0 -270 -115 0 -115 0 0 270 0 270 115 0
115 0 0 -270z m-445 -370 l-95 -95 -85 85 c-47 46 -85 88 -85 93 0 5 80 90
178 189 l177 180 3 -178 2 -178 -95 -96z m-181 -188 l19 -24 -488 -488 -488
-488 -124 106 -125 105 498 497 498 498 96 -91 c52 -50 104 -102 114 -115z
m-1984 -1157 l0 -445 -187 0 c-207 0 -247 9 -291 65 -40 50 -43 86 -40 406 l3
306 29 37 c51 67 84 76 299 76 l187 0 0 -445z m763 212 c155 -128 396 -326
535 -441 138 -114 252 -210 252 -212 0 -2 -322 -4 -715 -4 l-715 0 0 445 0
445 180 0 181 0 282 -233z"/>
<path d="M4020 4360 c-19 -19 -20 -33 -20 -400 0 -461 -15 -420 155 -420 170
0 155 -41 155 420 0 461 15 420 -155 420 -102 0 -117 -2 -135 -20z m170 -400
l0 -300 -35 0 -35 0 0 300 0 300 35 0 35 0 0 -300z"/>
<path d="M4500 4360 c-19 -19 -20 -33 -20 -400 0 -461 -15 -420 155 -420 170
0 155 -41 155 420 0 461 15 420 -155 420 -102 0 -117 -2 -135 -20z m170 -400
l0 -300 -35 0 -35 0 0 300 0 300 35 0 35 0 0 -300z"/>
<path d="M275 1566 c-152 -48 -260 -180 -272 -330 -13 -162 94 -316 256 -366
53 -17 92 -20 245 -20 l181 0 29 -56 c133 -255 456 -355 718 -223 78 40 183
144 223 221 l30 58 370 0 370 0 29 -56 c133 -255 456 -355 718 -223 78 39 183
144 223 221 l29 57 206 3 c200 3 206 4 265 31 120 56 202 173 213 303 10 124
-57 261 -162 331 -99 67 29 63 -1890 62 -1377 0 -1749 -3 -1781 -13z m518
-159 c-95 -105 -148 -245 -141 -379 l3 -68 -161 0 c-186 0 -232 11 -292 69
-57 56 -77 104 -77 186 0 58 5 78 28 117 15 26 43 59 62 74 65 49 91 53 369
54 l258 0 -49 -53z m540 23 c123 -46 222 -160 251 -290 20 -86 20 -114 0 -201
-38 -167 -181 -289 -358 -306 -122 -11 -258 39 -339 126 -152 162 -151 402 2
564 118 125 287 166 444 107z m1200 -23 c-92 -102 -143 -231 -143 -369 l0 -68
-335 0 -335 0 0 68 c0 138 -51 267 -143 369 l-49 53 527 0 527 0 -49 -53z
m540 23 c208 -78 319 -328 238 -539 -103 -271 -456 -346 -672 -144 -92 86
-144 242 -121 359 43 212 229 363 432 350 36 -3 91 -14 123 -26z m767 9 c196
-88 199 -355 5 -445 -46 -22 -63 -24 -217 -24 l-168 0 0 73 c0 133 -50 267
-137 366 l-45 51 259 0 c238 0 262 -2 303 -21z"/>
<path d="M1095 1302 c-204 -70 -260 -307 -108 -458 56 -56 114 -79 203 -79
111 0 191 48 244 144 101 186 -36 412 -248 411 -23 -1 -64 -8 -91 -18z m169
-115 c55 -31 89 -96 83 -160 -11 -118 -131 -181 -237 -125 -99 53 -119 170
-42 252 55 58 130 71 196 33z"/>
<path d="M2830 1300 c-103 -35 -180 -147 -180 -260 0 -150 130 -280 280 -280
148 0 280 131 280 279 0 154 -129 282 -284 281 -23 -1 -66 -9 -96 -20z m174
-113 c55 -31 89 -96 83 -160 -8 -88 -67 -142 -157 -142 -90 0 -149 54 -157
142 -9 92 69 183 157 183 19 0 53 -10 74 -23z"/>
</g>
</svg>
