<?xml version="1.0" standalone="no"?>
<!DOCTYPE svg PUBLIC "-//W3C//DTD SVG 20010904//EN"
 "http://www.w3.org/TR/2001/REC-SVG-20010904/DTD/svg10.dtd">
<svg version="1.0" xmlns="http://www.w3.org/2000/svg"
 width="512.000000pt" height="512.000000pt" viewBox="0 0 512.000000 512.000000"
 preserveAspectRatio="xMidYMid meet">

<g transform="translate(0.000000,512.000000) scale(0.100000,-0.100000)"
fill="#000000" stroke="none">
<path d="M2400 4954 c-203 -26 -380 -78 -555 -165 -158 -77 -195 -108 -195
-159 0 -30 6 -43 26 -59 37 -29 60 -26 128 15 218 131 438 199 691 211 475 23
927 -191 1216 -576 85 -114 173 -280 215 -406 105 -320 94 -680 -31 -990 -105
-261 -266 -462 -519 -650 -134 -100 -205 -179 -266 -295 -53 -103 -70 -179
-70 -322 l0 -118 -375 0 -376 0 -24 -25 c-33 -32 -33 -78 0 -110 l24 -25 431
0 431 0 24 -25 c33 -32 33 -78 0 -110 l-24 -25 -591 0 -591 0 -24 25 c-50 49
-15 135 55 135 70 0 105 86 55 135 -47 48 -145 26 -220 -50 -87 -87 -100 -201
-33 -298 19 -27 19 -27 0 -55 -42 -60 -52 -131 -30 -206 13 -45 105 -146 132
-146 12 0 16 -10 16 -37 0 -59 28 -161 58 -217 36 -66 114 -145 182 -184 95
-55 167 -64 437 -60 273 5 304 12 416 96 107 82 170 198 184 339 4 45 10 63
20 63 26 0 118 103 131 146 22 75 12 146 -30 206 -19 28 -19 28 0 55 42 61 52
132 30 207 -13 45 -105 146 -132 146 -14 0 -16 18 -16 124 0 240 62 348 299
523 340 252 556 597 638 1018 24 127 24 424 -1 555 -126 657 -621 1160 -1272
1290 -97 20 -381 34 -464 24z m775 -4019 c16 -15 25 -36 25 -55 0 -19 -9 -40
-25 -55 l-24 -25 -591 0 -591 0 -24 25 c-16 15 -25 36 -25 55 0 19 9 40 25 55
l24 25 591 0 591 0 24 -25z m-139 -342 c-14 -105 -87 -201 -185 -247 -43 -20
-62 -21 -291 -21 -229 0 -248 1 -291 21 -98 46 -171 142 -185 247 l-7 47 483
0 483 0 -7 -47z"/>
<path d="M1332 4383 c-154 -165 -298 -474 -348 -748 -28 -150 -26 -422 4 -572
37 -186 107 -369 197 -518 115 -191 255 -343 440 -480 186 -138 251 -226 295
-402 18 -70 91 -92 137 -41 24 26 21 84 -7 168 -49 145 -144 265 -307 386
-200 149 -346 311 -447 497 -256 471 -229 1049 70 1486 36 53 79 115 96 138
34 46 33 78 -2 113 -35 35 -78 26 -128 -27z"/>
<path d="M321 4284 c-27 -34 -27 -67 2 -98 25 -29 388 -166 438 -166 63 0 96
86 51 132 -23 22 -400 158 -439 158 -22 0 -38 -8 -52 -26z"/>
<path d="M4515 4236 c-105 -39 -197 -75 -204 -79 -36 -25 -30 -106 9 -127 34
-18 67 -11 262 60 200 73 238 96 238 144 0 13 -9 35 -21 50 -31 39 -70 33
-284 -48z"/>
<path d="M2430 3994 c-14 -2 -56 -9 -95 -15 -232 -37 -513 -181 -659 -338 -42
-46 -47 -56 -42 -84 3 -18 16 -40 27 -49 39 -33 71 -23 156 49 90 76 148 115
250 167 310 156 681 154 997 -6 97 -48 144 -80 242 -164 82 -69 114 -79 153
-46 11 9 24 31 27 49 6 29 1 38 -51 92 -138 144 -372 269 -605 322 -81 19
-340 34 -400 23z"/>
<path d="M2397 3584 c-153 -28 -317 -110 -429 -215 -58 -54 -67 -100 -28 -139
36 -36 81 -27 147 31 73 64 163 114 261 147 67 22 94 26 212 26 118 0 145 -4
212 -26 98 -33 188 -83 261 -147 42 -37 66 -51 88 -51 42 0 65 15 77 48 14 41
-6 80 -64 129 -210 175 -471 245 -737 197z"/>
<path d="M185 3495 c-16 -15 -25 -36 -25 -55 0 -19 9 -40 25 -55 l24 -25 231
0 231 0 24 25 c33 32 33 78 0 110 l-24 25 -231 0 -231 0 -24 -25z"/>
<path d="M4425 3495 c-16 -15 -25 -36 -25 -55 0 -19 9 -40 25 -55 l24 -25 231
0 231 0 24 25 c16 15 25 36 25 55 0 19 -9 40 -25 55 l-24 25 -231 0 -231 0
-24 -25z"/>
<path d="M2461 3189 c-114 -22 -261 -123 -261 -179 0 -42 9 -59 42 -76 35 -18
57 -12 116 33 72 55 107 66 202 66 95 0 130 -11 202 -66 59 -45 81 -51 116
-33 60 31 58 88 -4 146 -103 95 -265 138 -413 109z"/>
<path d="M535 2789 c-197 -72 -235 -95 -235 -143 0 -38 37 -76 73 -76 32 0
411 133 436 153 36 29 30 106 -9 127 -34 18 -74 9 -265 -61z"/>
<path d="M4317 2848 c-38 -29 -41 -96 -6 -125 25 -19 405 -153 437 -153 35 0
72 39 72 76 0 48 -38 71 -238 144 -198 71 -236 80 -265 58z"/>
<path d="M2425 2695 c-16 -15 -25 -36 -25 -55 0 -19 9 -40 25 -55 23 -24 31
-25 135 -25 104 0 112 1 135 25 16 15 25 36 25 55 0 19 -9 40 -25 55 -23 24
-31 25 -135 25 -104 0 -112 -1 -135 -25z"/>
</g>
</svg>
