<?xml version="1.0" standalone="no"?>
<!DOCTYPE svg PUBLIC "-//W3C//DTD SVG 20010904//EN"
 "http://www.w3.org/TR/2001/REC-SVG-20010904/DTD/svg10.dtd">
<svg version="1.0" xmlns="http://www.w3.org/2000/svg"
 width="512.000000pt" height="512.000000pt" viewBox="0 0 512.000000 512.000000"
 preserveAspectRatio="xMidYMid meet">

<g transform="translate(0.000000,512.000000) scale(0.100000,-0.100000)"
fill="#000000" stroke="none">
<path d="M4990 4933 c-8 -3 -427 -416 -930 -918 -886 -884 -917 -914 -990
-949 -195 -93 -610 -82 -949 26 -163 52 -275 107 -590 292 -332 195 -384 221
-511 257 -75 21 -106 24 -255 24 -186 0 -249 -12 -397 -75 -151 -65 -322 -202
-354 -286 -19 -50 -15 -125 10 -171 8 -15 85 -98 170 -183 l156 -154 -164
-166 c-150 -152 -164 -169 -175 -216 -23 -95 -10 -117 167 -296 l156 -158
-161 -163 c-103 -104 -163 -172 -167 -190 -16 -67 52 -132 123 -119 16 3 85
64 189 166 l163 160 132 -132 132 -132 -367 -367 c-393 -395 -396 -399 -363
-463 19 -37 73 -63 113 -54 18 4 150 129 394 372 l368 366 157 -155 c140 -138
163 -157 206 -168 93 -23 139 4 327 193 l145 146 390 -389 c435 -433 426 -426
560 -426 133 0 58 -67 1308 1183 1075 1075 1129 1130 1134 1170 5 36 2 45 -25
72 -24 24 -39 30 -73 30 l-43 0 -341 -340 -340 -340 -398 398 -397 397 796
795 c437 437 802 807 810 822 21 41 17 74 -13 108 -28 30 -74 45 -103 33z
m-3995 -1493 c39 -12 93 -34 120 -47 71 -36 335 -193 335 -199 0 -3 -20 -29
-45 -57 -50 -57 -61 -83 -51 -123 12 -45 50 -74 98 -74 40 0 46 4 111 74 l69
75 129 -65 c71 -35 129 -66 129 -68 0 -2 -14 -36 -31 -77 -21 -52 -28 -83 -24
-105 11 -63 85 -100 142 -71 28 15 56 63 92 160 6 15 14 27 18 27 5 -1 49 -11
98 -24 l90 -23 5 -99 c6 -110 16 -136 62 -160 26 -13 38 -14 70 -5 52 16 68
50 68 149 l0 79 199 -1 198 -1 464 -457 464 -458 -126 -126 -126 -126 -64 45
c-339 235 -789 236 -1128 0 l-64 -45 -461 461 c-440 439 -463 461 -498 461
-69 0 -126 -76 -98 -132 7 -13 158 -169 336 -348 l324 -325 -58 -58 -57 -57
-795 795 -794 794 24 27 c73 78 225 160 360 195 106 27 314 21 415 -11z m2765
-805 l395 -395 -105 -105 -105 -105 -415 416 c-228 229 -410 418 -404 420 35
14 140 84 181 120 26 24 50 43 53 44 3 0 183 -178 400 -395z m-2322 -1212
l-143 -143 -542 542 -543 543 142 142 143 143 542 -542 543 -543 -142 -142z
m1687 212 c71 -19 171 -64 238 -107 l49 -31 -244 -244 -243 -243 -242 242
-243 243 22 17 c33 25 149 86 200 104 126 46 334 54 463 19z m-710 -395 l370
-371 -32 -29 c-38 -34 -72 -45 -110 -35 -19 4 -146 124 -373 350 l-345 345 55
55 c30 30 57 55 60 55 3 0 172 -167 375 -370z"/>
<path d="M983 2816 c-23 -20 -28 -32 -28 -71 0 -39 5 -51 28 -71 64 -55 167
-11 167 71 0 82 -103 126 -167 71z"/>
<path d="M55 368 c-47 -27 -64 -81 -40 -127 49 -96 185 -63 185 44 0 71 -83
118 -145 83z"/>
<path d="M429 351 c-58 -58 -29 -151 52 -166 19 -3 1057 -4 2307 -3 l2274 3
29 33 c16 18 29 44 29 58 0 33 -25 81 -49 94 -13 7 -760 10 -2316 10 l-2297 0
-29 -29z"/>
</g>
</svg>
