<?xml version="1.0" standalone="no"?>
<!DOCTYPE svg PUBLIC "-//W3C//DTD SVG 20010904//EN"
 "http://www.w3.org/TR/2001/REC-SVG-20010904/DTD/svg10.dtd">
<svg version="1.0" xmlns="http://www.w3.org/2000/svg"
 width="512.000000pt" height="512.000000pt" viewBox="0 0 512.000000 512.000000"
 preserveAspectRatio="xMidYMid meet">

<g transform="translate(0.000000,512.000000) scale(0.100000,-0.100000)"
fill="#000000" stroke="none">
<path d="M2505 4615 c-22 -21 -25 -33 -25 -95 0 -62 3 -74 25 -95 15 -16 36
-25 55 -25 19 0 40 9 55 25 22 21 25 33 25 95 0 62 -3 74 -25 95 -15 16 -36
25 -55 25 -19 0 -40 -9 -55 -25z"/>
<path d="M1785 4535 c-14 -13 -25 -36 -25 -50 0 -38 58 -135 89 -146 50 -20
111 17 111 67 0 32 -55 130 -80 144 -32 17 -70 11 -95 -15z"/>
<path d="M3238 4550 c-23 -14 -78 -112 -78 -139 0 -56 57 -93 110 -71 34 14
90 105 90 145 0 54 -73 93 -122 65z"/>
<path d="M1225 4375 c-38 -37 -33 -77 15 -129 53 -57 89 -72 127 -54 15 7 34
26 41 41 18 38 3 74 -54 127 -52 48 -92 53 -129 15z"/>
<path d="M3763 4347 c-70 -71 -72 -120 -6 -156 34 -18 65 -5 118 49 59 59 65
99 21 137 -43 37 -72 30 -133 -30z"/>
<path d="M2505 4295 l-25 -24 0 -271 0 -271 25 -24 c15 -16 36 -25 55 -25 19
0 40 9 55 25 l25 24 0 271 0 271 -25 24 c-15 16 -36 25 -55 25 -19 0 -40 -9
-55 -25z"/>
<path d="M1945 4255 c-14 -13 -25 -35 -25 -48 0 -28 241 -454 271 -479 46 -39
129 -3 129 55 0 28 -241 454 -271 480 -30 25 -75 22 -104 -8z"/>
<path d="M3071 4263 c-30 -26 -271 -452 -271 -480 0 -58 83 -94 129 -55 30 25
271 451 271 479 0 58 -83 94 -129 56z"/>
<path d="M1452 4147 c-14 -14 -22 -36 -22 -57 0 -30 18 -52 178 -213 97 -99
190 -185 206 -192 62 -27 127 32 105 95 -6 15 -92 108 -192 208 -168 167 -186
182 -218 182 -24 0 -43 -7 -57 -23z"/>
<path d="M3392 3977 c-208 -209 -215 -220 -169 -273 17 -19 33 -27 56 -27 30
0 54 21 227 194 158 158 194 200 194 222 0 39 -41 77 -82 77 -30 0 -53 -19
-226 -193z"/>
<path d="M786 3589 c-62 -15 -153 -68 -197 -116 -22 -24 -55 -74 -72 -111
l-32 -67 0 -735 0 -735 32 -67 c44 -93 100 -151 191 -196 l76 -37 1050 0 1051
0 55 26 c30 14 388 231 795 483 786 485 814 505 863 610 38 81 44 133 40 398
l-3 253 -32 67 c-44 93 -100 151 -191 196 l-76 37 -1755 2 c-1038 0 -1772 -3
-1795 -8z m1454 -1029 l0 -880 -696 0 c-518 0 -707 3 -738 12 -55 16 -138 99
-154 154 -17 59 -17 1369 0 1428 15 51 99 137 148 153 24 7 256 11 738 12
l702 1 0 -880z m2074 868 c55 -16 138 -99 154 -154 8 -27 12 -119 12 -266 0
-252 -7 -292 -64 -350 -26 -27 -1406 -890 -1526 -954 -31 -17 -63 -19 -262
-22 l-228 -3 0 880 0 881 936 0 c706 0 947 -3 978 -12z"/>
<path d="M1315 3190 c-145 -27 -271 -94 -381 -204 -90 -90 -143 -175 -182
-294 -22 -67 -26 -94 -26 -212 0 -118 4 -145 26 -212 39 -119 92 -204 182
-294 90 -90 175 -143 294 -182 67 -22 94 -26 212 -26 118 0 145 4 212 26 119
39 204 92 294 182 90 90 143 175 182 294 22 67 26 94 26 212 0 118 -4 145 -26
212 -39 119 -92 204 -182 294 -138 137 -286 202 -476 209 -58 2 -127 0 -155
-5z m231 -161 c164 -29 320 -149 394 -303 232 -480 -270 -981 -747 -745 -414
205 -414 794 0 998 118 58 225 73 353 50z"/>
<path d="M1321 2944 c-253 -68 -410 -331 -346 -579 67 -256 329 -415 580 -350
256 67 415 329 350 578 -67 259 -333 419 -584 351z m250 -173 c69 -33 112 -74
150 -143 31 -58 34 -70 34 -148 0 -78 -3 -90 -34 -148 -38 -70 -70 -100 -145
-140 -43 -22 -64 -26 -136 -26 -78 -1 -90 2 -148 33 -69 37 -109 80 -144 151
-32 66 -31 196 2 265 42 86 123 152 215 176 49 13 158 2 206 -20z"/>
<path d="M1544 2614 c-21 -21 -25 -31 -20 -60 20 -113 23 -100 -33 -154 -60
-58 -67 -95 -26 -135 31 -32 70 -32 118 1 88 59 131 167 108 271 -22 98 -91
134 -147 77z"/>
<path d="M3060 3344 c-111 -23 -224 -86 -311 -173 -251 -252 -252 -650 0 -901
253 -252 651 -253 901 -1 253 254 253 648 0 902 -155 156 -374 220 -590 173z
m255 -159 c172 -45 305 -179 350 -352 65 -249 -94 -511 -350 -578 -251 -65
-513 94 -580 350 -89 343 237 669 580 580z"/>
<path d="M3106 3110 c-63 -16 -153 -70 -197 -117 -22 -24 -55 -74 -72 -111
-29 -61 -32 -76 -32 -163 0 -90 2 -99 37 -171 45 -91 103 -147 196 -191 61
-29 76 -32 162 -32 86 0 101 3 162 32 93 44 151 100 196 191 35 72 37 81 37
172 0 91 -2 100 -37 172 -68 136 -188 217 -336 224 -42 2 -94 -1 -116 -6z
m168 -162 c55 -16 138 -99 154 -154 28 -94 8 -169 -63 -239 -101 -102 -229
-102 -330 0 -102 101 -102 229 0 330 70 71 145 90 239 63z"/>
<path d="M3225 2855 c-29 -28 -32 -65 -8 -106 16 -27 16 -31 0 -58 -24 -41
-21 -78 8 -106 97 -98 216 100 140 231 -41 69 -95 85 -140 39z"/>
<path d="M1623 1248 c-181 -181 -193 -195 -193 -229 0 -29 6 -43 26 -58 53
-42 63 -35 273 173 173 173 194 197 194 227 0 23 -8 39 -27 56 -53 46 -64 39
-273 -169z"/>
<path d="M3225 1415 c-16 -15 -25 -35 -25 -56 0 -29 22 -55 188 -221 103 -104
197 -191 210 -195 54 -13 112 45 99 99 -4 13 -91 107 -195 211 -166 165 -192
187 -221 187 -21 0 -41 -9 -56 -25z"/>
<path d="M2501 1404 c-20 -25 -21 -39 -21 -290 0 -261 0 -263 23 -290 17 -20
33 -27 57 -27 24 0 40 7 57 27 23 27 23 29 23 290 0 251 -1 265 -21 290 -16
20 -29 26 -59 26 -30 0 -43 -6 -59 -26z"/>
<path d="M2197 1390 c-33 -26 -277 -450 -277 -482 0 -28 29 -63 60 -73 52 -16
72 7 206 238 70 122 130 234 132 249 3 20 -4 35 -26 58 -36 35 -60 38 -95 10z"/>
<path d="M2828 1380 c-22 -23 -29 -38 -26 -58 2 -15 62 -127 132 -249 134
-231 154 -254 206 -238 31 10 60 45 60 73 0 32 -244 456 -277 482 -35 28 -59
25 -95 -10z"/>
<path d="M1253 877 c-60 -61 -67 -90 -30 -133 38 -44 78 -38 137 21 54 53 67
84 49 118 -36 66 -85 64 -156 -6z"/>
<path d="M3735 905 c-38 -37 -33 -77 16 -129 50 -55 84 -68 126 -51 66 28 59
100 -16 168 -50 45 -90 49 -126 12z"/>
<path d="M1817 748 c-34 -45 -57 -93 -57 -117 0 -34 43 -74 78 -74 39 0 67 24
98 85 29 58 30 78 3 112 -16 20 -29 26 -59 26 -32 0 -43 -6 -63 -32z"/>
<path d="M3181 754 c-27 -34 -26 -54 3 -112 31 -61 59 -85 98 -85 35 0 78 40
78 74 0 24 -23 72 -57 117 -20 26 -31 32 -63 32 -30 0 -43 -6 -59 -26z"/>
<path d="M2501 684 c-31 -40 -30 -143 2 -180 33 -37 81 -37 114 0 19 22 23 38
23 90 0 82 -23 116 -80 116 -30 0 -43 -6 -59 -26z"/>
</g>
</svg>
