<?xml version="1.0" encoding="UTF-8"?>
<svg version="1.1" xmlns="http://www.w3.org/2000/svg" width="512" height="512">
<path d="M0 0 C50.82 0 101.64 0 154 0 C154 17.16 154 34.32 154 52 C148.39 52 142.78 52 137 52 C137 79.72 137 107.44 137 136 C142.61 136 148.22 136 154 136 C154 153.16 154 170.32 154 188 C148.72 188 143.44 188 138 188 C142.18425166 208.92125831 150.30888387 226.89249123 168 240 C191.25593288 254.87615425 217.65255704 258.47782119 244.83984375 253.75390625 C266.0252581 248.69978391 283.52503024 237.20051246 295.16015625 218.6328125 C300.85798954 208.99002194 303.56692234 198.86696704 306 188 C300.72 188 295.44 188 290 188 C290 170.84 290 153.68 290 136 C295.61 136 301.22 136 307 136 C306.97905273 134.47826172 306.95810547 132.95652344 306.93652344 131.38867188 C306.86339334 125.67083375 306.8179376 119.9530358 306.78027344 114.23486328 C306.76032276 111.77352923 306.73315236 109.31224155 306.69824219 106.85107422 C306.46335138 89.8491252 306.49202165 73.98462987 314.75 58.625 C315.26324829 57.63705444 315.26324829 57.63705444 315.78686523 56.62915039 C318.87932172 50.86320628 322.5886552 45.83533909 327 41 C327.77537109 40.08734375 327.77537109 40.08734375 328.56640625 39.15625 C336.64084099 30.25211144 348.66924148 23.66977285 360 20 C360.73582306 19.7523439 361.47164612 19.50468781 362.22976685 19.24952698 C372.23037493 16.29382837 382.10002798 16.61948892 392.421875 16.70703125 C394.37770256 16.71263717 396.33353437 16.71690255 398.28936768 16.71989441 C403.39884385 16.73126478 408.50805793 16.76066345 413.61743164 16.79400635 C418.84648088 16.82487693 424.0755731 16.83843581 429.3046875 16.85351562 C439.53659111 16.88554175 449.7682326 16.93824456 460 17 C460 11.39 460 5.78 460 0 C477.16 0 494.32 0 512 0 C512 45.21 512 90.42 512 137 C494.84 137 477.68 137 460 137 C460 131.39 460 125.78 460 120 C455.60212348 120.03297658 451.20934651 120.10014543 446.8125 120.1875 C444.94368164 120.19620117 444.94368164 120.19620117 443.03710938 120.20507812 C435.94909832 120.28078893 435.94909832 120.28078893 429.6875 123.21875 C427.90835209 126.15104933 427.32356657 127.91083569 427.1875 131.3125 C427.125625 132.859375 427.06375 134.40625 427 136 C432.61 136 438.22 136 444 136 C444 153.16 444 170.32 444 188 C438.39 188 432.78 188 427 188 C426.938125 190.289375 426.87625 192.57875 426.8125 194.9375 C424.65430727 237.81985113 405.50483095 279.36824801 377 311 C376.28199219 311.83789062 375.56398438 312.67578125 374.82421875 313.5390625 C370.55321363 318.49840436 366.02485655 322.8169588 361 327 C360.05769531 327.80695313 359.11539062 328.61390625 358.14453125 329.4453125 C357.11815611 330.3188477 356.09079467 331.19122522 355.0625 332.0625 C354.55041992 332.4968335 354.03833984 332.93116699 353.51074219 333.37866211 C350.47715713 335.90616814 347.40802642 338.01806701 344 340 C338.94851826 343.23367909 337.58360104 347.39581186 336 353 C335.608125 354.216875 335.21625 355.43375 334.8125 356.6875 C332.95871182 365.02134422 332.91827888 373.6834477 333.1171875 382.1796875 C333.1373291 383.27224854 333.1574707 384.36480957 333.17822266 385.49047852 C333.22506083 387.65825732 333.29403542 389.82570356 333.38818359 391.99194336 C333.56332348 400.32557306 331.76830875 406.90858694 326.02392578 413.14550781 C318.63890114 420.11466194 312.39904669 421.60531109 302.375 421.33984375 C295.63098758 420.66075917 291.79160552 418.10245976 287.1875 413.25 C282.13744523 406.96906628 280.95825234 401.8910899 280.5625 393.875 C280.16342009 386.55070982 279.02996731 383.71920143 273.5625 378.8125 C272.716875 378.214375 271.87125 377.61625 271 377 C269.92105469 376.19369141 269.92105469 376.19369141 268.8203125 375.37109375 C263.16955815 372.62398187 255.84872589 374.09367215 250 376 C239.28374443 382.41880442 232.82173219 394.12328806 229.46948242 405.85693359 C226.49956814 419.41382782 229.11845475 434.40835484 231.5 447.875 C237.38940345 481.42102983 237.38940345 481.42102983 228 494.86328125 C221.50568469 502.75686516 212.30661279 509.2173453 202 511 C190.50655843 511.96172831 180.8036179 510.02822406 171.76953125 502.61328125 C163.77906626 495.32837608 157.59661835 485.50886814 156.7265625 474.55859375 C156.1215471 457.46480788 161.70550342 442.22554605 167.3203125 426.27124023 C170.64333148 416.68294589 172.09488371 409.10264678 167.9140625 399.5078125 C164.09640821 391.8945713 158.89373912 385.75400985 153.27490234 379.43798828 C151.61439802 377.56507168 149.99922061 375.6543892 148.375 373.75 C147.81941406 373.13382812 147.26382813 372.51765625 146.69140625 371.8828125 C145.51728443 370.57582239 144.38128488 369.23397175 143.27734375 367.8671875 C137.73257368 361.53975605 131.32770207 358.4224993 123.86621094 354.87158203 C79.57425589 333.65549086 44.54615521 292.9866407 28 247 C21.40519251 228.0181603 16.71600901 208.16336051 17 188 C11.39 188 5.78 188 0 188 C0 170.84 0 153.68 0 136 C5.61 136 11.22 136 17 136 C17 108.28 17 80.56 17 52 C11.39 52 5.78 52 0 52 C0 34.84 0 17.68 0 0 Z M18 18 C18 23.28 18 28.56 18 34 C56.94 34 95.88 34 136 34 C136 28.72 136 23.44 136 18 C97.06 18 58.12 18 18 18 Z M478 18 C478 51.33 478 84.66 478 119 C483.28 119 488.56 119 494 119 C494 85.67 494 52.34 494 18 C488.72 18 483.44 18 478 18 Z M338 56 C330.43108128 65.60028294 324.85579224 77.88427343 324.88647461 90.24926758 C324.88659546 91.28410278 324.88671631 92.31893799 324.88684082 93.38513184 C324.89195679 94.46073364 324.89707275 95.53633545 324.90234375 96.64453125 C324.90335083 97.64206421 324.90435791 98.63959717 324.90539551 99.6673584 C324.91061507 103.38241735 324.92457633 107.09745987 324.9375 110.8125 C324.958125 119.124375 324.97875 127.43625 325 136 C352.72 136 380.44 136 409 136 C409.33 131.71 409.66 127.42 410 123 C412.23185532 115.3224177 415.08705268 110.25846591 422 106 C430 103 430 103 460 102 C460 79.89 460 57.78 460 35 C445.16114977 34.91263315 445.16114977 34.91263315 430.32226562 34.85351562 C424.2633468 34.83563472 418.20456496 34.8145615 412.14575195 34.77368164 C407.25685952 34.7409047 402.36811415 34.72310855 397.47912025 34.71536827 C395.62095134 34.70985751 393.76278978 34.69909695 391.90468407 34.68280983 C370.34865542 34.50150594 352.80734864 39.73835819 338 56 Z M35 52 C35 79.72 35 107.44 35 136 C62.72 136 90.44 136 119 136 C119 108.28 119 80.56 119 52 C91.28 52 63.56 52 35 52 Z M18 154 C18 159.28 18 164.56 18 170 C56.94 170 95.88 170 136 170 C136 164.72 136 159.44 136 154 C97.06 154 58.12 154 18 154 Z M308 154 C308 159.28 308 164.56 308 170 C346.94 170 385.88 170 426 170 C426 164.72 426 159.44 426 154 C387.06 154 348.12 154 308 154 Z M35 188 C35.14993123 190.56070255 35.30258169 193.12119486 35.45678711 195.68164062 C35.49868919 196.40208557 35.54059128 197.12253052 35.58376312 197.86480713 C35.90548411 203.15663114 36.47741737 208.30496531 37.5625 213.5 C37.73104492 214.31694336 37.89958984 215.13388672 38.07324219 215.97558594 C41.77167752 232.82401358 47.64949137 248.92383541 56 264 C56.64407544 265.20918503 57.28730784 266.41881949 57.9296875 267.62890625 C62.50704606 276.09771242 67.91219851 283.58696282 74 291 C74.46422363 291.57250488 74.92844727 292.14500977 75.40673828 292.73486328 C101.94956015 325.32200108 139.49768327 347.67606175 181 355 C180.22397475 350.12774022 178.62039086 345.61764262 176.9375 341 C176.54401367 339.80890625 176.54401367 339.80890625 176.14257812 338.59375 C173.82138787 332.30610146 170.91518356 329.91806735 165 327 C164.11723389 326.53513184 163.23446777 326.07026367 162.32495117 325.59130859 C159.44178778 324.08732879 156.53812778 322.63248855 153.625 321.1875 C152.62855469 320.68541016 151.63210937 320.18332031 150.60546875 319.66601562 C149.18041016 318.95541992 149.18041016 318.95541992 147.7265625 318.23046875 C146.43613037 317.58694458 146.43613037 317.58694458 145.11962891 316.93041992 C143.08058495 315.86602129 143.08058495 315.86602129 141 316 C141.5053125 314.94039063 142.010625 313.88078125 142.53125 312.7890625 C143.18770131 311.40113686 143.84394033 310.01311081 144.5 308.625 C144.83386719 307.92632812 145.16773438 307.22765625 145.51171875 306.5078125 C147.35209398 302.91172001 147.35209398 302.91172001 148 299 C148.87736816 299.46486816 149.75473633 299.92973633 150.65869141 300.40869141 C153.92466381 302.13235662 157.20392251 303.82927415 160.48779297 305.51855469 C161.9056063 306.25256543 163.31974298 306.99372465 164.72998047 307.7421875 C166.76119034 308.81862853 168.80435872 309.86842895 170.8515625 310.9140625 C171.789431 311.42170639 171.789431 311.42170639 172.74624634 311.93960571 C175.72770814 313.43221269 177.55610868 314.08065945 180.86987305 313.47851562 C185.02143026 311.51752736 189.14312466 309.52168284 193.23046875 307.4296875 C195.02013732 306.52465065 196.80985223 305.61970543 198.59960938 304.71484375 C201.40522287 303.29021639 204.20981907 301.8636274 207.01342773 300.43505859 C209.72906379 299.05318217 212.44828999 297.67858595 215.16796875 296.3046875 C216.00861374 295.87348602 216.84925873 295.44228455 217.71537781 294.99801636 C218.49661514 294.6040567 219.27785248 294.21009705 220.08276367 293.80419922 C221.11151863 293.28030106 221.11151863 293.28030106 222.16105652 292.74581909 C224 292 224 292 227 292 C230.465 298.93 230.465 298.93 234 306 C219.78580588 313.57643366 205.43053492 320.84494468 191 328 C192.92609718 334.90874685 195.29149786 341.47694282 198.125 348.0625 C198.48464844 348.91521484 198.84429687 349.76792969 199.21484375 350.64648438 C200.66618245 354.60106655 200.66618245 354.60106655 203 358 C205.68572786 358.11394809 208.34461043 358.16420609 211.03125 358.16796875 C211.85516235 358.17129715 212.67907471 358.17462555 213.5279541 358.17805481 C215.28669679 358.18313615 217.04544919 358.18546277 218.80419922 358.18530273 C221.43344403 358.18744575 224.06223833 358.20546374 226.69140625 358.22460938 C265.39640355 358.35583061 302.30204362 347.39659478 334 325 C334.59055176 324.58588867 335.18110352 324.17177734 335.78955078 323.74511719 C372.32882829 297.70658904 396.85345406 257.89111678 405.8125 214.25 C406.1233252 212.74252197 406.1233252 212.74252197 406.44042969 211.20458984 C407.95292308 203.36538506 408.4214214 196.10010043 409 188 C380.95 188 352.9 188 324 188 C322.68 194.6 321.36 201.2 320 208 C310.27510416 233.55168712 294.19395486 253.36436986 269.01806641 265.13183594 C242.25654098 276.64453669 206.23555192 277.08681249 179.06933594 266.84521484 C167.83142178 262.25511824 157.93160472 256.22808791 149 248 C148.3709375 247.45085937 147.741875 246.90171875 147.09375 246.3359375 C131.9092832 232.32481586 123.20409145 211.32641 120.39453125 191.265625 C120.2305884 189.03881677 120.2305884 189.03881677 119 188 C116.38311559 187.90490441 113.792711 187.87444 111.17553711 187.88647461 C109.94636818 187.88625557 109.94636818 187.88625557 108.69236755 187.8860321 C105.97066647 187.88673148 103.24903295 187.89452499 100.52734375 187.90234375 C98.64547259 187.90420784 96.76360094 187.90563179 94.88172913 187.90663147 C89.91851471 187.91045733 84.95532936 187.92028819 79.99212646 187.93133545 C74.93160394 187.9415481 69.87107673 187.94612878 64.81054688 187.95117188 C54.87368512 187.9619104 44.93684497 187.97898764 35 188 Z M309.60546875 358.6796875 C308.73212891 359.03160156 307.85878906 359.38351562 306.95898438 359.74609375 C305.58709961 360.30490234 305.58709961 360.30490234 304.1875 360.875 C303.28451172 361.23980469 302.38152344 361.60460937 301.45117188 361.98046875 C299.7574228 362.66493752 298.06424438 363.35082133 296.37182617 364.03857422 C293.91758763 365.03340606 291.45946829 366.01817742 289 367 C289.39832031 367.556875 289.79664063 368.11375 290.20703125 368.6875 C296.37995739 377.57891673 298.31564742 383.81948053 298.49609375 394.73046875 C299.09395464 398.60961265 300.22148312 400.27200161 303 403 C306.94289454 403.75502236 308.46383861 403.35744093 311.8125 401.125 C314.48038993 398.53496935 314.48038993 398.53496935 315.09765625 395.0390625 C315.08605469 394.24242187 315.07445312 393.44578125 315.0625 392.625 C315.05412109 391.72990723 315.04574219 390.83481445 315.03710938 389.91259766 C315.02486328 388.95144043 315.01261719 387.9902832 315 387 C314.92721738 376.96096134 315.30775629 367.01281085 316 357 C313.51554144 357 311.91091203 357.74537013 309.60546875 358.6796875 Z M172 372 C172.36351562 372.53367187 172.72703125 373.06734375 173.1015625 373.6171875 C176.93465074 379.29802085 180.62675732 385.03268618 184 391 C184.40605469 391.70640625 184.81210938 392.4128125 185.23046875 393.140625 C191.99765539 406.33297441 188.51138315 421.46814211 184.20243835 434.89962769 C183.12313635 438.15200032 182.00467548 441.38983617 180.875 444.625 C180.18922238 446.61167404 179.50623097 448.59924947 178.82644653 450.58798218 C178.21755763 452.36597915 177.6009749 454.14133599 176.98388672 455.91650391 C174.38623732 464.05752423 173.40183516 472.36705698 177.0625 480.3125 C180.14919099 485.81258111 184.0103911 489.3557151 189.5 492.375 C196.16763764 494.04190941 200.7168611 492.72762081 206.625 489.56640625 C211.09591574 486.61766083 214.30232103 483.09303691 216 478 C216.66201081 469.47051339 215.38683234 461.38530549 213.86157227 453.01724243 C211.81382706 441.59269772 210.5063369 430.44071817 210.5 418.8125 C210.49419922 417.71099609 210.48839844 416.60949219 210.48242188 415.47460938 C210.64436877 404.84441525 212.54767973 394.7980964 217.5625 385.375 C218.16191406 384.22773438 218.76132813 383.08046875 219.37890625 381.8984375 C221 379 221 379 223 376 C222.39341553 375.98541748 221.78683105 375.97083496 221.16186523 375.95581055 C206.67556094 375.57133862 192.5150305 374.42429214 178.18457031 372.25952148 C175.70464366 371.92135468 175.70464366 371.92135468 172 372 Z " fill="#000000" transform="translate(0,1)"/>
<path d="M0 0 C1.81274414 0.01353516 1.81274414 0.01353516 3.66210938 0.02734375 C6.62899213 0.05079737 9.59577222 0.08666468 12.5625 0.125 C12.5625 6.065 12.5625 12.005 12.5625 18.125 C10.995 18.16238281 9.4275 18.19976562 7.8125 18.23828125 C5.729144 18.30397266 3.64581171 18.37041888 1.5625 18.4375 C0.53253906 18.46005859 -0.49742187 18.48261719 -1.55859375 18.50585938 C-10.7620532 18.82827356 -17.68528397 20.37278397 -24.4375 27.125 C-28.12102048 32.36195404 -29.49700049 37.01558344 -29.75390625 43.328125 C-29.79580078 44.3078125 -29.83769531 45.2875 -29.88085938 46.296875 C-29.92017578 47.31265625 -29.95949219 48.3284375 -30 49.375 C-30.04318359 50.40625 -30.08636719 51.4375 -30.13085938 52.5 C-30.23675587 55.04151588 -30.33761481 57.58324077 -30.4375 60.125 C-36.3775 60.125 -42.3175 60.125 -48.4375 60.125 C-49.38971451 25.95107925 -49.38971451 25.95107925 -35.78125 11.34765625 C-25.37564642 1.70283973 -13.62311051 -0.19323561 0 0 Z " fill="#000000" transform="translate(389.4375,51.875)"/>
<path d="M0 0 C5.94 0 11.88 0 18 0 C18 17.16 18 34.32 18 52 C12.06 52 6.12 52 0 52 C0 34.84 0 17.68 0 0 Z " fill="#000000" transform="translate(85,69)"/>
<path d="M0 0 C5.94 0 11.88 0 18 0 C18 5.94 18 11.88 18 18 C12.06 18 6.12 18 0 18 C0 12.06 0 6.12 0 0 Z " fill="#000000" transform="translate(85,205)"/>
<path d="M0 0 C5.94 0 11.88 0 18 0 C18 5.94 18 11.88 18 18 C12.06 18 6.12 18 0 18 C0 12.06 0 6.12 0 0 Z " fill="#000000" transform="translate(418,52)"/>
</svg>
