<?xml version="1.0" encoding="UTF-8"?>
<svg version="1.1" xmlns="http://www.w3.org/2000/svg" width="512" height="512">
<path d="M0 0 C0.75318512 -0.0049649 1.50637024 -0.00992981 2.28237915 -0.01504517 C4.77436232 -0.0296517 7.26628184 -0.03646605 9.75830078 -0.04199219 C11.49081423 -0.04774462 13.22332765 -0.05350234 14.95584106 -0.05926514 C18.58905331 -0.06977065 22.22224345 -0.07561634 25.85546875 -0.07910156 C30.50830107 -0.0845872 35.16084089 -0.1086185 39.81358147 -0.13707352 C43.39267834 -0.15570707 46.97170482 -0.16090586 50.5508461 -0.16243744 C52.26603928 -0.16546257 53.98123126 -0.17348643 55.6963768 -0.18662262 C58.09728953 -0.20369934 60.49748849 -0.20179922 62.8984375 -0.1953125 C63.60510559 -0.20452728 64.31177368 -0.21374207 65.03985596 -0.22323608 C69.3634787 -0.18668875 72.21748879 0.37259983 75.57861328 3.16113281 C76.77415042 6.48313618 76.70496991 9.72745156 76.70724773 13.23037624 C76.71047218 14.48231256 76.71369663 15.73424888 76.71701878 17.02412266 C76.7155476 18.41593844 76.71397988 19.80775412 76.71232605 21.1995697 C76.71419379 22.67613758 76.71649435 24.15270497 76.71919137 25.62927157 C76.72532022 29.69235016 76.72517451 33.75540822 76.723997 37.81849039 C76.72379327 42.19824631 76.72930907 46.57799558 76.73405457 50.95774841 C76.74236738 59.5401791 76.74510968 68.12260292 76.74566694 76.70503729 C76.74614176 83.67906173 76.74819478 90.6530839 76.75136757 97.62710762 C76.76017549 117.38898303 76.76478667 137.150853 76.7640371 156.91273039 C76.76397716 158.51138417 76.76397716 158.51138417 76.76391602 160.14233398 C76.76387513 161.20940051 76.76383425 162.27646704 76.76379213 163.37586892 C76.76338552 180.67667094 76.77295866 197.97745121 76.78705438 215.27824693 C76.80140535 233.03202409 76.80832529 250.78579062 76.80746061 268.53957373 C76.80712822 278.51125956 76.80989369 288.48292258 76.82063866 298.4546032 C76.82972679 306.94323359 76.8319328 315.43183083 76.82512923 323.92046397 C76.82185561 328.25317951 76.82183761 332.5858314 76.83048248 336.91854095 C76.83831124 340.88290479 76.8369534 344.84715412 76.82819835 348.81151504 C76.82665534 350.24754543 76.82850946 351.68358421 76.83405843 353.1196047 C76.84109157 355.06840775 76.834646 357.01724559 76.82750225 358.96604824 C76.8278283 360.59122644 76.8278283 360.59122644 76.82816094 362.24923652 C76.56343843 365.33820362 76.07618088 367.44633459 74.57861328 370.16113281 C71.21050868 372.75899446 67.60102558 372.41177242 63.47862339 372.41281509 C62.75963555 372.41572198 62.04064772 372.41862886 61.29987237 372.42162383 C58.87801775 372.42895306 56.45641416 372.42196692 54.03456116 372.4151001 C52.28575572 372.41740338 50.53695125 372.42057901 48.78814882 372.42455459 C43.97254581 372.43292954 39.15702173 372.42876508 34.34141839 372.42258215 C29.15183666 372.41806965 23.96226881 372.42503546 18.77268982 372.43054199 C8.60206188 372.4394507 -1.5685366 372.43750736 -11.73916572 372.43171671 C-20.0032376 372.42720578 -28.26730121 372.42658485 -36.53137398 372.42876434 C-37.70614157 372.42907081 -38.88090916 372.42937728 -40.09127577 372.42969303 C-42.47756898 372.43033246 -44.86386219 372.43098089 -47.2501554 372.43163821 C-69.6442726 372.4373459 -92.03837345 372.43077687 -114.43248797 372.42003748 C-133.6588576 372.41110274 -152.88520308 372.41265253 -172.11157227 372.421875 C-194.42226976 372.4325719 -216.7329529 372.43679531 -239.04365259 372.43065047 C-241.42162963 372.43001336 -243.79960666 372.42938461 -246.17758369 372.42876434 C-247.34768294 372.42845579 -248.51778218 372.42814724 -249.72333897 372.42782934 C-257.97953821 372.42610057 -266.23572836 372.42902144 -274.49192619 372.43372345 C-284.55060377 372.43932589 -294.60925011 372.43782932 -304.6679241 372.42716196 C-309.80263944 372.42189648 -314.93730268 372.41986338 -320.07201767 372.42646027 C-324.76914642 372.43240379 -329.46617457 372.42917107 -334.16329414 372.41850516 C-335.86580847 372.41626433 -337.56833123 372.41742266 -339.27084016 372.42225674 C-341.57920068 372.42831011 -343.88721352 372.42212894 -346.19555569 372.41281509 C-347.47950015 372.41249039 -348.76344462 372.41216568 -350.0862965 372.41183114 C-353.53575555 372.15253572 -356.87606511 371.70645442 -359.42138672 369.16113281 C-359.51752805 367.49088612 -359.54326394 365.81655005 -359.54164124 364.14353943 C-359.5430159 363.05673889 -359.54439056 361.96993835 -359.54580688 360.85020447 C-359.54041397 359.04622948 -359.54041397 359.04622948 -359.53491211 357.20581055 C-359.53505814 355.94745392 -359.53520416 354.68909729 -359.53535461 353.39260864 C-359.53564257 349.93202028 -359.52974621 346.4714663 -359.52278066 343.01088595 C-359.51654674 339.3980519 -359.51594329 335.78521714 -359.51475525 332.17237854 C-359.51164204 325.32649773 -359.5034288 318.48063281 -359.49340576 311.63475901 C-359.48224429 303.84286692 -359.47673409 296.05097409 -359.47171032 288.259076 C-359.46124618 272.22641895 -359.44364695 256.19377791 -359.42138672 240.16113281 C-360.72809326 240.17684326 -362.0347998 240.19255371 -363.38110352 240.20874023 C-368.23585836 240.26310001 -373.09058635 240.29750507 -377.94555664 240.32592773 C-380.04553758 240.34100053 -382.14548711 240.36146223 -384.24536133 240.38745117 C-387.26635496 240.42390035 -390.28693183 240.44087441 -393.30810547 240.45410156 C-394.24474533 240.46958542 -395.18138519 240.48506927 -396.14640808 240.50102234 C-401.00212398 240.50227189 -404.56918973 240.49203844 -408.42138672 237.16113281 C-409.34170736 234.40017089 -409.5569045 232.71162611 -409.58251953 229.86083984 C-409.59212708 228.99629181 -409.60173462 228.13174377 -409.6116333 227.24099731 C-409.61588318 226.30972015 -409.62013306 225.37844299 -409.62451172 224.41894531 C-409.63021179 223.45842255 -409.63591187 222.49789978 -409.64178467 221.50827026 C-409.6512313 219.47573955 -409.65776731 217.44319354 -409.66162109 215.41064453 C-409.67132754 212.30506624 -409.70235458 209.20014956 -409.73388672 206.09472656 C-409.74041689 204.11947007 -409.74566731 202.14420885 -409.74951172 200.16894531 C-409.76185852 199.24171661 -409.77420532 198.31448792 -409.78692627 197.35916138 C-409.77015691 192.49306398 -409.66459464 189.07647238 -406.42138672 185.16113281 C-404.06938612 183.98513251 -402.68404271 184.0402874 -400.06347656 184.04760742 C-398.7123024 184.04772072 -398.7123024 184.04772072 -397.33383179 184.0478363 C-396.35983429 184.05299759 -395.38583679 184.05815887 -394.38232422 184.06347656 C-393.38633209 184.06489151 -392.39033997 184.06630646 -391.36416626 184.06776428 C-388.17487619 184.07337345 -384.98565566 184.08592752 -381.79638672 184.09863281 C-379.63753356 184.10364663 -377.47867931 184.10820974 -375.31982422 184.11230469 C-370.02032122 184.12334586 -364.72085894 184.14009294 -359.42138672 184.16113281 C-359.43709717 183.17717529 -359.45280762 182.19321777 -359.46899414 181.17944336 C-359.5232965 177.52864773 -359.55773757 173.8778878 -359.58618164 170.22680664 C-359.60126766 168.64666745 -359.62173922 167.06657012 -359.64770508 165.48657227 C-359.68409798 163.21522696 -359.70111434 160.94443523 -359.71435547 158.67285156 C-359.72983932 157.9665007 -359.74532318 157.26014984 -359.76127625 156.53239441 C-359.76292677 151.72155169 -359.76292677 151.72155169 -358.3918457 149.47180176 C-355.31718091 147.42666015 -352.12107349 147.76965601 -348.5534668 147.82055664 C-347.75323593 147.82011856 -346.95300507 147.81968048 -346.12852478 147.81922913 C-343.482408 147.82131984 -340.83692412 147.84466387 -338.19091797 147.86816406 C-336.35674892 147.87375902 -334.5225754 147.87802959 -332.68840027 147.88102722 C-327.85991039 147.89248391 -323.03169106 147.92195816 -318.20330811 147.95513916 C-312.41056153 147.99121657 -306.61772452 148.00499728 -300.82489777 148.02249908 C-292.02353923 148.05159504 -283.22277436 148.10907641 -274.42138672 148.16113281 C-274.42138672 135.62113281 -274.42138672 123.08113281 -274.42138672 110.16113281 C-278.71138672 110.16113281 -283.00138672 110.16113281 -287.42138672 110.16113281 C-291.42138672 108.16113281 -291.42138672 108.16113281 -292.42138672 106.16113281 C-292.87915803 100.78231992 -292.87915803 100.78231992 -291.1927948 98.49395657 C-288.92646448 96.78874876 -287.6494079 96.78181836 -284.82885742 96.77345276 C-283.88668365 96.76354813 -282.94450989 96.75364349 -281.9737854 96.74343872 C-280.94200165 96.74794037 -279.9102179 96.75244202 -278.84716797 96.75708008 C-277.75914886 96.75021683 -276.67112976 96.74335358 -275.55014038 96.73628235 C-271.9445907 96.71794286 -268.33947314 96.72186184 -264.73388672 96.72753906 C-262.23429217 96.722981 -259.73469887 96.71767656 -257.23510742 96.71165466 C-251.99279831 96.70270972 -246.75060198 96.70493006 -241.50830078 96.71508789 C-235.44660576 96.7265738 -229.38535292 96.71248722 -223.32371616 96.68569142 C-217.49362986 96.66088323 -211.66371602 96.65835263 -205.83358765 96.66480827 C-203.35199243 96.66496204 -200.87038892 96.65887256 -198.38882446 96.6465168 C-194.92408 96.63169642 -191.46031844 96.64221844 -187.99560547 96.65942383 C-186.96382172 96.64975586 -185.93203796 96.64008789 -184.86898804 96.63012695 C-183.45572739 96.64487816 -183.45572739 96.64487816 -182.01391602 96.65992737 C-180.785019 96.66024129 -180.785019 96.66024129 -179.53129578 96.66056156 C-177.42138672 97.16113281 -177.42138672 97.16113281 -175.66560364 99.03620815 C-174.08478914 101.73598795 -173.80611528 103.0847756 -174.42138672 106.16113281 C-179.42138672 110.16113281 -179.42138672 110.16113281 -193.42138672 110.16113281 C-193.42138672 122.70113281 -193.42138672 135.24113281 -193.42138672 148.16113281 C-134.02138672 148.16113281 -74.62138672 148.16113281 -13.42138672 148.16113281 C-13.54019258 101.27973367 -13.54019258 101.27973367 -13.69165039 54.3984375 C-13.7052002 45.33935547 -13.7052002 45.33935547 -13.7077179 41.10089111 C-13.71051737 38.13516533 -13.72177753 35.16960001 -13.7381134 32.20391846 C-13.75866632 28.4226616 -13.7648648 24.6416386 -13.76060355 20.86033106 C-13.7614948 19.47156927 -13.76745834 18.08279944 -13.77903211 16.6940856 C-13.79392904 14.81977727 -13.78857182 12.94534041 -13.78215027 11.07098389 C-13.78491565 10.02013988 -13.78768103 8.96929588 -13.7905302 7.88660812 C-13.3659714 4.75198819 -12.62497506 3.40202048 -10.42138672 1.16113281 C-6.88480725 -0.01772701 -3.68037543 0.00578872 0 0 Z M-0.42138672 13.16113281 C-0.42138672 23.72113281 -0.42138672 34.28113281 -0.42138672 45.16113281 C7.2965095 45.33139775 7.2965095 45.33139775 15.01513672 45.45898438 C16.46194824 45.50490723 16.46194824 45.50490723 17.93798828 45.55175781 C18.92250977 45.57270508 19.90703125 45.59365234 20.92138672 45.61523438 C24.28350409 46.305945 25.52286514 47.45156126 27.57861328 50.16113281 C27.45361328 53.34863281 27.45361328 53.34863281 26.57861328 56.16113281 C23.95137932 57.47474979 21.85250767 57.3736719 18.91455078 57.47753906 C17.39933838 57.53470093 17.39933838 57.53470093 15.85351562 57.59301758 C13.92306396 57.65767212 13.92306396 57.65767212 11.95361328 57.72363281 C7.86986328 57.86800781 3.78611328 58.01238281 -0.42138672 58.16113281 C-0.42138672 68.72113281 -0.42138672 79.28113281 -0.42138672 90.16113281 C12.94361328 90.65613281 12.94361328 90.65613281 26.57861328 91.16113281 C27.57861328 98.16113281 27.57861328 98.16113281 26.5012207 100.56054688 C23.8876064 102.73640153 22.19588496 102.70189887 18.81689453 102.77050781 C17.80925049 102.80112305 16.80160645 102.83173828 15.76342773 102.86328125 C14.48556396 102.87907227 13.2077002 102.89486328 11.89111328 102.91113281 C7.82798828 102.99363281 3.76486328 103.07613281 -0.42138672 103.16113281 C-0.42138672 113.72113281 -0.42138672 124.28113281 -0.42138672 135.16113281 C7.71589084 135.45023413 7.71589084 135.45023413 15.85351562 135.72924805 C16.86365723 135.76735596 17.87379883 135.80546387 18.91455078 135.84472656 C19.95144043 135.88138428 20.98833008 135.91804199 22.05664062 135.95581055 C24.57861328 136.16113281 24.57861328 136.16113281 26.57861328 137.16113281 C27.45361328 139.97363281 27.45361328 139.97363281 27.57861328 143.16113281 C25.52286514 145.87070436 24.28350409 147.01632062 20.92138672 147.70703125 C19.93686523 147.72797852 18.95234375 147.74892578 17.93798828 147.77050781 C16.97344727 147.80112305 16.00890625 147.83173828 15.01513672 147.86328125 C13.79858398 147.87907227 12.58203125 147.89486328 11.32861328 147.91113281 C7.45111328 147.99363281 3.57361328 148.07613281 -0.42138672 148.16113281 C-0.42138672 158.72113281 -0.42138672 169.28113281 -0.42138672 180.16113281 C8.15861328 180.49113281 16.73861328 180.82113281 25.57861328 181.16113281 C26.23861328 183.14113281 26.89861328 185.12113281 27.57861328 187.16113281 C26.58861328 189.14113281 26.58861328 189.14113281 25.57861328 191.16113281 C16.99861328 191.49113281 8.41861328 191.82113281 -0.42138672 192.16113281 C-0.42138672 202.72113281 -0.42138672 213.28113281 -0.42138672 224.16113281 C7.2965095 224.33139775 7.2965095 224.33139775 15.01513672 224.45898438 C16.46194824 224.50490723 16.46194824 224.50490723 17.93798828 224.55175781 C18.92250977 224.57270508 19.90703125 224.59365234 20.92138672 224.61523438 C24.28350409 225.305945 25.52286514 226.45156126 27.57861328 229.16113281 C27.45361328 232.34863281 27.45361328 232.34863281 26.57861328 235.16113281 C23.95137932 236.47474979 21.85250767 236.3736719 18.91455078 236.47753906 C17.90440918 236.51564697 16.89426758 236.55375488 15.85351562 236.59301758 C14.56654785 236.63612061 13.27958008 236.67922363 11.95361328 236.72363281 C7.86986328 236.86800781 3.78611328 237.01238281 -0.42138672 237.16113281 C-0.42138672 247.72113281 -0.42138672 258.28113281 -0.42138672 269.16113281 C7.6706705 269.33149084 7.6706705 269.33149084 15.76342773 269.45898438 C16.77107178 269.48959961 17.77871582 269.52021484 18.81689453 269.55175781 C20.36437378 269.58317871 20.36437378 269.58317871 21.94311523 269.61523438 C24.57861328 270.16113281 24.57861328 270.16113281 26.45043945 272.03515625 C27.57861328 274.16113281 27.57861328 274.16113281 27.39111328 276.78613281 C26.57861328 279.16113281 26.57861328 279.16113281 24.57861328 281.16113281 C22.05664063 281.47998047 22.05664063 281.47998047 18.91455078 281.57519531 C17.90440918 281.61080566 16.89426758 281.64641602 15.85351562 281.68310547 C14.56654785 281.71710449 13.27958008 281.75110352 11.95361328 281.78613281 C7.86986328 281.90988281 3.78611328 282.03363281 -0.42138672 282.16113281 C-0.42138672 292.72113281 -0.42138672 303.28113281 -0.42138672 314.16113281 C7.71589084 314.45023413 7.71589084 314.45023413 15.85351562 314.72924805 C16.86365723 314.76735596 17.87379883 314.80546387 18.91455078 314.84472656 C19.95144043 314.88138428 20.98833008 314.91804199 22.05664062 314.95581055 C24.57861328 315.16113281 24.57861328 315.16113281 26.57861328 316.16113281 C27.45361328 318.97363281 27.45361328 318.97363281 27.57861328 322.16113281 C25.52286514 324.87070436 24.28350409 326.01632062 20.92138672 326.70703125 C19.93686523 326.72797852 18.95234375 326.74892578 17.93798828 326.77050781 C16.97344727 326.80112305 16.00890625 326.83173828 15.01513672 326.86328125 C13.79858398 326.87907227 12.58203125 326.89486328 11.32861328 326.91113281 C7.45111328 326.99363281 3.57361328 327.07613281 -0.42138672 327.16113281 C-0.42138672 337.72113281 -0.42138672 348.28113281 -0.42138672 359.16113281 C20.69861328 359.16113281 41.81861328 359.16113281 63.57861328 359.16113281 C63.57861328 244.98113281 63.57861328 130.80113281 63.57861328 13.16113281 C42.45861328 13.16113281 21.33861328 13.16113281 -0.42138672 13.16113281 Z M-261.42138672 110.16113281 C-261.71066554 125.5387233 -261.71066554 125.5387233 -261.98950195 140.91650391 C-262.02761499 142.83920027 -262.06608328 144.76188965 -262.10498047 146.68457031 C-262.1214563 147.68915283 -262.13793213 148.69373535 -262.15490723 149.72875977 C-262.17508911 150.68274658 -262.195271 151.6367334 -262.21606445 152.61962891 C-262.23160873 153.45013763 -262.24715302 154.28064636 -262.26316833 155.13632202 C-262.42138672 157.16113281 -262.42138672 157.16113281 -263.42138672 159.16113281 C-267.02836977 160.3634605 -270.34896241 160.33712832 -274.10571289 160.36645508 C-274.88643661 160.37635468 -275.66716034 160.38625427 -276.47154236 160.39645386 C-279.0524492 160.42804458 -281.63337445 160.45281669 -284.21435547 160.47753906 C-286.00369241 160.49811069 -287.79302452 160.51910721 -289.58235168 160.54051208 C-294.29230838 160.59571124 -299.00230877 160.64513004 -303.71234131 160.69335938 C-308.51839081 160.74359012 -313.32437684 160.79926798 -318.13037109 160.85449219 C-327.56065541 160.96204739 -336.99099484 161.06349825 -346.42138672 161.16113281 C-346.45897095 162.54619019 -346.45897095 162.54619019 -346.49731445 163.95922852 C-346.59247717 167.38659697 -346.69170885 170.81379742 -346.79370117 174.2409668 C-346.83700002 175.72399296 -346.87867871 177.20706735 -346.91870117 178.69018555 C-346.9765263 180.8225762 -347.04018504 182.95472523 -347.10498047 185.08691406 C-347.14163818 186.36993408 -347.1782959 187.6529541 -347.21606445 188.97485352 C-347.42138672 192.16113281 -347.42138672 192.16113281 -348.42138672 195.16113281 C-350.77257102 196.33672496 -352.24856586 196.31629744 -354.87109375 196.36645508 C-355.79189728 196.3864003 -356.71270081 196.40634552 -357.66140747 196.42689514 C-358.65727875 196.44360764 -359.65315002 196.46032013 -360.67919922 196.47753906 C-362.20648148 196.50871071 -362.20648148 196.50871071 -363.76461792 196.54051208 C-367.02513726 196.60602747 -370.28573878 196.66490184 -373.54638672 196.72363281 C-375.75342655 196.76681614 -377.960458 196.81043036 -380.16748047 196.85449219 C-385.58536613 196.96252377 -391.00331193 197.06158257 -396.42138672 197.16113281 C-396.42138672 207.06113281 -396.42138672 216.96113281 -396.42138672 227.16113281 C-393.05177734 227.19851563 -389.68216797 227.23589844 -386.21044922 227.27441406 C-382.95712687 227.3205877 -379.70392149 227.37183652 -376.45068359 227.42358398 C-374.18480501 227.45689617 -371.91884218 227.48490826 -369.65283203 227.50756836 C-366.40083822 227.54099874 -363.14962087 227.59330843 -359.89794922 227.64941406 C-358.88020416 227.65580399 -357.86245911 227.66219391 -356.81387329 227.66877747 C-355.87304901 227.68857162 -354.93222473 227.70836578 -353.96289062 227.72875977 C-353.1323819 227.73986282 -352.30187317 227.75096588 -351.44619751 227.7624054 C-350.77800995 227.89398544 -350.10982239 228.02556549 -349.42138672 228.16113281 C-347.09686048 231.64792217 -347.12364937 233.23080853 -347.00732422 237.36035156 C-346.94931641 239.1730957 -346.94931641 239.1730957 -346.89013672 241.02246094 C-346.85919922 242.28509766 -346.82826172 243.54773438 -346.79638672 244.84863281 C-346.73837891 246.75999023 -346.73837891 246.75999023 -346.67919922 248.70996094 C-346.58480986 251.86020573 -346.49922841 255.01044272 -346.42138672 258.16113281 C-342.96719141 256.83051454 -340.21409292 255.42104564 -337.23388672 253.22363281 C-329.5086623 247.97509995 -321.37922696 246.02590625 -312.19482422 247.52441406 C-305.03735086 249.2380111 -299.42655598 253.1205899 -293.42529297 257.20019531 C-288.93125293 260.13388595 -285.73760265 260.59688822 -280.42138672 260.16113281 C-275.84814405 258.53115834 -271.98787038 255.88126476 -268.04638672 253.09863281 C-261.32466495 248.52878755 -253.57307911 246.04742911 -245.42138672 247.16113281 C-238.89549894 248.43447677 -233.97977041 250.85120876 -228.57763672 254.66503906 C-223.08911219 258.4732001 -218.26859348 261.22363041 -211.42138672 260.16113281 C-206.12064413 258.08500863 -201.44236994 255.23383138 -196.79638672 251.97363281 C-189.48133178 246.98142866 -181.74325198 246.18853816 -173.08544922 247.52050781 C-166.76721781 249.03361178 -162.02158932 252.19302622 -156.88720703 256.02416992 C-151.66554905 259.90336895 -147.92548125 260.70314069 -141.42138672 260.16113281 C-136.84078162 258.52520242 -132.94961697 255.8642986 -128.98388672 253.09863281 C-121.10312706 247.75918158 -113.50871307 246.04017813 -104.12451172 247.52441406 C-97.0064331 249.23414863 -91.39520581 253.14132867 -85.42529297 257.20019531 C-80.93125293 260.13388595 -77.73760265 260.59688822 -72.42138672 260.16113281 C-67.84814405 258.53115834 -63.98787038 255.88126476 -60.04638672 253.09863281 C-53.32466495 248.52878755 -45.57307911 246.04742911 -37.42138672 247.16113281 C-30.88645392 248.43624165 -25.87383825 250.81626705 -20.52685547 254.75878906 C-18.06585247 256.50208485 -18.06585247 256.50208485 -13.42138672 258.16113281 C-13.42138672 226.15113281 -13.42138672 194.14113281 -13.42138672 161.16113281 C-26.87404297 161.11214844 -40.32669922 161.06316406 -54.18701172 161.01269531 C-62.69092453 160.97732523 -71.19483035 160.94145616 -79.69873047 160.90332031 C-93.20734083 160.8428342 -106.71593797 160.78443147 -120.22460938 160.73925781 C-130.06173604 160.70635261 -139.898806 160.66652956 -149.73587012 160.61834276 C-154.9461873 160.59306314 -160.15646679 160.57128616 -165.36682892 160.55778885 C-170.26858137 160.5449818 -175.17020465 160.52294202 -180.07188606 160.49374962 C-181.87303079 160.48466323 -183.67419632 160.47898114 -185.47536278 160.47691917 C-187.93076455 160.47360413 -190.38579842 160.45814739 -192.84112549 160.43960571 C-193.55708145 160.44154045 -194.27303742 160.44347518 -195.01068902 160.44546854 C-198.61774736 160.40462818 -201.41168911 160.25936199 -204.42138672 158.16113281 C-205.59697887 155.80994851 -205.57655135 154.33395367 -205.62670898 151.71142578 C-205.64689087 150.7777417 -205.66707275 149.84405762 -205.68786621 148.88208008 C-205.71257996 147.40759399 -205.71257996 147.40759399 -205.73779297 145.90332031 C-205.75644409 145.00105713 -205.77509521 144.09879395 -205.79431152 143.16918945 C-205.86272438 139.79160562 -205.92279949 136.41385708 -205.98388672 133.03613281 C-206.12826172 125.48738281 -206.27263672 117.93863281 -206.42138672 110.16113281 C-224.57138672 110.16113281 -242.72138672 110.16113281 -261.42138672 110.16113281 Z M-335.69873047 267.44238281 C-338.42138672 269.16113281 -338.42138672 269.16113281 -346.42138672 272.16113281 C-346.42138672 300.87113281 -346.42138672 329.58113281 -346.42138672 359.16113281 C-236.53138672 359.16113281 -126.64138672 359.16113281 -13.42138672 359.16113281 C-13.42138672 330.45113281 -13.42138672 301.74113281 -13.42138672 272.16113281 C-16.39138672 270.84113281 -19.36138672 269.52113281 -22.42138672 268.16113281 C-24.4459552 266.86540898 -26.44817619 265.53380101 -28.42138672 264.16113281 C-33.58779335 260.74935485 -38.09597774 258.56068482 -44.42138672 259.16113281 C-49.82716076 261.01697335 -54.4321891 264.12496688 -59.10888672 267.34863281 C-66.11038561 272.10183188 -73.10164864 273.04812243 -81.42138672 272.16113281 C-88.63838044 270.48018727 -94.28561609 267.22498389 -100.13232422 262.74707031 C-104.91106238 259.43620394 -108.8523006 258.61283251 -114.54638672 259.28222656 C-118.82050059 260.58885105 -122.05703683 263.15247596 -125.59643555 265.77929688 C-133.11401392 271.28650178 -141.14679807 273.40339126 -150.42138672 272.16113281 C-157.70598401 270.40530448 -163.224829 267.10723486 -169.21826172 262.71582031 C-174.06048781 259.29878843 -178.32363235 258.68210043 -184.06982422 259.48925781 C-187.57878943 260.4918193 -190.15822737 262.40100364 -193.08544922 264.53222656 C-202.3830091 271.01564206 -211.48277576 273.65838758 -222.75341797 271.77050781 C-228.63369099 270.11767431 -233.00642935 266.77125445 -237.74560547 263.00097656 C-242.65532008 259.6250998 -247.11931102 258.61690687 -252.92919922 259.41894531 C-257.01865196 260.63680741 -260.27224918 262.98824418 -263.77294922 265.37597656 C-272.08154731 270.9763148 -279.44983763 273.06999796 -289.42138672 272.16113281 C-296.63714334 270.49750004 -302.29184917 267.22021006 -308.13232422 262.74707031 C-318.48268385 255.57600203 -326.86430792 260.71701272 -335.69873047 267.44238281 Z " fill="#000000" transform="translate(422.42138671875,69.8388671875)"/>
<path d="M0 0 C3.00474752 2.35749147 5.68041512 4.98560612 8.375 7.6875 C9.11105469 8.38294922 9.84710938 9.07839844 10.60546875 9.79492188 C15.85392908 15.00930129 15.85392908 15.00930129 16.57421875 19.89453125 C16 23 16 23 14.4375 25 C10.97697331 26.41970326 8.58483216 25.86301515 5 25 C4.34 24.34 3.68 23.68 3 23 C2.98541748 24.09989258 2.97083496 25.19978516 2.95581055 26.33300781 C2.8977853 30.41846023 2.82055294 34.50336391 2.73754883 38.58837891 C2.70431931 40.35554083 2.67628118 42.12280839 2.65356445 43.89013672 C2.61998169 46.43242351 2.56766549 48.97374408 2.51171875 51.515625 C2.50213387 52.69865204 2.50213387 52.69865204 2.49235535 53.90557861 C2.40563502 57.14963788 2.20710839 59.60526581 0.68676758 62.50292969 C-1 64 -1 64 -4.5 64.4375 C-8 64 -8 64 -9.69172668 62.71769714 C-12.00413927 59.68161558 -11.48367512 55.85175049 -11.51171875 52.17578125 C-11.53864555 50.88367989 -11.53864555 50.88367989 -11.56611633 49.56547546 C-11.62029298 46.81453342 -11.65413823 44.06376559 -11.6875 41.3125 C-11.72066663 39.44724134 -11.75515567 37.5820057 -11.79101562 35.71679688 C-11.87602356 31.14465682 -11.94279943 26.57256909 -12 22 C-13.12341797 22.99193359 -13.12341797 22.99193359 -14.26953125 24.00390625 C-17 26 -17 26 -20.6875 25.9375 C-24 25 -24 25 -26 22 C-26.13608038 18.32582971 -25.69217816 15.9201279 -23.45800781 12.95019531 C-21.4180449 10.75496232 -19.30369099 8.6824421 -17.125 6.625 C-16.39152344 5.90183594 -15.65804688 5.17867187 -14.90234375 4.43359375 C-7.00051625 -3.2379437 -7.00051625 -3.2379437 0 0 Z " fill="#000000" transform="translate(359,245)"/>
</svg>
