<?xml version="1.0" encoding="UTF-8"?>
<svg version="1.1" xmlns="http://www.w3.org/2000/svg" width="512" height="512">
<path d="M0 0 C11.42948171 65.75695262 12.63417289 148.04874067 -26 206 C-33.07612529 205.42496499 -39.37019036 203.45896652 -46.0859375 201.21875 C-47.22406891 200.84520386 -48.36220032 200.47165771 -49.53482056 200.08679199 C-53.15050533 198.89802439 -56.76268733 197.69897013 -60.375 196.5 C-62.82661346 195.69337351 -65.27843432 194.88737714 -67.73046875 194.08203125 C-76.67684774 191.13562592 -76.67684774 191.13562592 -81.12646484 189.65820312 C-82.0216684 189.36143677 -82.91687195 189.06467041 -83.83920288 188.75891113 C-86 188 -86 188 -88 187 C-87.35277314 180.80100496 -86.09722084 174.9248056 -84.625 168.875 C-82.80347649 161.12103987 -81.31683936 153.39405779 -80.25 145.5 C-80.13479004 144.65421387 -80.01958008 143.80842773 -79.90087891 142.93701172 C-75.33207207 107.11231307 -78.60907869 72.18253998 -86 37 C-75.12132122 31.44114991 -64.1245413 26.28031161 -52.9375 21.375 C-49.79078282 19.99028172 -46.64516904 18.60307443 -43.5 17.21484375 C-42.71225693 16.86746658 -41.92451385 16.52008942 -41.11289978 16.16218567 C-35.67863184 13.75963607 -30.27097265 11.30364328 -24.875 8.81640625 C-23.43760637 8.15635833 -22.00018829 7.49636366 -20.56274414 6.83642578 C-18.51191857 5.89444766 -16.46286534 4.94935819 -14.41842651 3.99359131 C-12.55226882 3.12135185 -10.681126 2.26079148 -8.80859375 1.40234375 C-7.75470459 0.91241943 -6.70081543 0.42249512 -5.61499023 -0.08227539 C-3 -1 -3 -1 0 0 Z " fill="#413F42" transform="translate(410,173)"/>
<path d="M0 0 C16.27503319 8.17142291 30.41187586 26.38807792 40.875 40.94140625 C41.53242188 41.84028564 41.53242188 41.84028564 42.203125 42.75732422 C58.51280036 65.16555275 70.58439376 89.61527625 79.19482422 115.91308594 C79.79136723 117.69200888 80.45493856 119.44816252 81.12890625 121.19921875 C81.98984251 124.36349757 81.94035192 125.85255002 80.875 128.94140625 C78.73413086 130.41674805 78.73413086 130.41674805 75.83984375 131.640625 C74.73970947 132.11878662 73.6395752 132.59694824 72.50610352 133.08959961 C71.27493542 133.60278118 70.04373315 134.11588077 68.8125 134.62890625 C67.53414792 135.17826792 66.25674378 135.72983992 64.98022461 136.28344727 C62.90646397 137.18225181 60.83204844 138.07923046 58.7545929 138.96946716 C50.30413869 142.59308494 41.93650763 146.3989273 33.56082153 150.1913147 C27.06688627 153.13115359 20.56879528 156.06129006 14.05841064 158.96453857 C12.61678869 159.60952668 11.17676494 160.25810038 9.73846436 160.91046143 C7.78652085 161.79557313 5.82966544 162.66873887 3.87109375 163.5390625 C2.77853271 164.03027588 1.68597168 164.52148926 0.56030273 165.02758789 C-2.125 165.94140625 -2.125 165.94140625 -5.125 164.94140625 C-6.30859375 162.22265625 -6.30859375 162.22265625 -7.5625 158.44140625 C-21.61135321 118.52989144 -46.91205023 84.86165928 -75.125 53.94140625 C-71.27048404 49.82645002 -67.14261317 46.68377092 -62.5 43.50390625 C-56.15845127 39.09554603 -49.8926489 34.60232487 -43.6875 30.00390625 C-35.95810513 24.28319152 -28.19367803 18.61530386 -20.37890625 13.01171875 C-17.57070807 10.99574015 -14.7900328 8.94895662 -12.02734375 6.87109375 C-11.38772705 6.39639648 -10.74811035 5.92169922 -10.08911133 5.43261719 C-8.89774241 4.54759124 -7.71343522 3.65294609 -6.5378418 2.74707031 C-2.70646579 -0.07462681 -2.70646579 -0.07462681 0 0 Z " fill="#00A79D" transform="translate(322.125,25.05859375)"/>
<path d="M0 0 C3.47060168 2.06759249 5.77725393 4.10944433 7 8 C7.61731434 11.49811458 7.66086294 13.88178489 5.8203125 16.99609375 C3.96537557 19.414612 2.00625857 21.70514618 0 24 C-0.86796369 25.02428418 -1.73374104 26.05042389 -2.59765625 27.078125 C-4.47313075 29.30712878 -6.35667235 31.52890245 -8.24609375 33.74609375 C-10.68178092 36.61254839 -13.0672214 39.51659406 -15.4375 42.4375 C-19.39443418 47.30049424 -23.46435942 52.05700203 -27.55615234 56.80615234 C-31.35044293 61.21893283 -35.05077156 65.70022584 -38.71875 70.21875 C-40.83354576 72.79706264 -42.97686333 75.34664058 -45.13745117 77.88647461 C-46.54026756 79.53635203 -47.93669362 81.19145223 -49.33203125 82.84765625 C-51.03978261 84.87410551 -52.76641466 86.87607274 -54.51171875 88.87109375 C-55.25035156 89.73863281 -55.98898438 90.60617187 -56.75 91.5 C-57.40484375 92.2528125 -58.0596875 93.005625 -58.734375 93.78125 C-60.40336837 96.7071396 -59.86153885 97.79134991 -59 101 C-58.05221576 115.18568878 -59.89524712 126.10494853 -68.875 137.59375 C-76.41570528 146.13248981 -87.31987924 151.22134211 -98.65625 152.23828125 C-110.44637528 152.54599056 -120.79418902 149.44800849 -130 142 C-130.92039062 141.28263672 -130.92039062 141.28263672 -131.859375 140.55078125 C-139.62043171 133.73410091 -144.51329427 122.8378166 -145.23828125 112.65234375 C-145.50985765 99.05923017 -142.38537895 87.96236168 -133 77.84375 C-124.28548679 69.50271592 -114.02443508 65.54214216 -102 65 C-99.70582856 65.38104795 -97.41411412 65.77716274 -95.125 66.1875 C-90.47945719 66.64740357 -87.86476143 66.23200075 -84.16796875 63.49609375 C-80.84994922 60.72149591 -77.7651581 57.72052127 -74.70605469 54.66552734 C-72.40948415 52.42351186 -69.95070972 50.43111651 -67.4375 48.4375 C-63.22801285 45.02862853 -59.10242906 41.53596636 -55 38 C-49.98689941 33.68060414 -44.9146229 29.44902564 -39.77734375 25.27734375 C-36.65603399 22.71795755 -33.57557916 20.11397155 -30.5 17.5 C-24.72491631 12.59512265 -18.91314291 7.73841168 -13 3 C-12.3296875 2.43152344 -11.659375 1.86304688 -10.96875 1.27734375 C-7.52235091 -0.9587128 -3.95405131 -0.64253334 0 0 Z " fill="#403F41" transform="translate(241,169)"/>
<path d="M0 0 C7.46066099 1.96482474 14.80945614 4.16151383 22.13671875 6.57421875 C23.14217239 6.90291458 24.14762604 7.23161041 25.18354797 7.57026672 C28.35236313 8.60682618 31.51994587 9.64709422 34.6875 10.6875 C36.85343475 11.39673142 39.01944967 12.10571802 41.18554688 12.81445312 C46.45796037 14.54014306 51.72937088 16.26886834 57 18 C31.20125431 61.93207882 -23.64488105 90.20934215 -71.0625 103 C-74.47385222 103.88164169 -76.63592549 104.11876843 -80 103 C-78.6701338 101.64242826 -77.33586929 100.28916504 -76 98.9375 C-74.88625 97.80634766 -74.88625 97.80634766 -73.75 96.65234375 C-70.94466021 93.9466254 -68.04334744 91.39480046 -65.10107422 88.84057617 C-36.78859361 64.03836942 -15.01495798 34.54147216 0 0 Z " fill="#413F41" transform="translate(315,378)"/>
<path d="M0 0 C18.81 0 37.62 0 57 0 C57 5.61 57 11.22 57 17 C44.79 17 32.58 17 20 17 C20 20.3 20 23.6 20 27 C31.22 27 42.44 27 54 27 C54 32.28 54 37.56 54 43 C42.78 43 31.56 43 20 43 C20 46.3 20 49.6 20 53 C32.54 53 45.08 53 58 53 C58 58.94 58 64.88 58 71 C38.86 71 19.72 71 0 71 C0 47.57 0 24.14 0 0 Z " fill="#00A79C" transform="translate(154,434)"/>
<path d="M0 0 C18.81 0 37.62 0 57 0 C57 5.94 57 11.88 57 18 C45.12 18 33.24 18 21 18 C21 21.63 21 25.26 21 29 C31.89 29 42.78 29 54 29 C54 34.61 54 40.22 54 46 C43.11 46 32.22 46 21 46 C21 54.25 21 62.5 21 71 C14.07 71 7.14 71 0 71 C0 47.57 0 24.14 0 0 Z " fill="#00A79D" transform="translate(154,7)"/>
</svg>
