<?xml version="1.0" encoding="UTF-8"?>
<svg version="1.1" xmlns="http://www.w3.org/2000/svg" width="512" height="512">
<path d="M0 0 C9.3711352 5.97369615 14.78355877 12.97958255 18.2734375 23.44921875 C18.36098548 25.12142846 18.39109745 26.79694074 18.38696289 28.47143555 C18.38688736 29.4922673 18.38681183 30.51309906 18.38673401 31.56486511 C18.38157272 32.664944 18.37641144 33.76502289 18.37109375 34.8984375 C18.36897133 36.59006767 18.36897133 36.59006767 18.36680603 38.31587219 C18.3612022 41.92284787 18.34864903 45.52976179 18.3359375 49.13671875 C18.33092299 51.58007723 18.32636 54.02343668 18.32226562 56.46679688 C18.31123153 62.46095862 18.29448965 68.45508427 18.2734375 74.44921875 C19.07950439 74.63967773 19.88557129 74.83013672 20.71606445 75.02636719 C21.78300537 75.28450195 22.84994629 75.54263672 23.94921875 75.80859375 C25.00278564 76.06092773 26.05635254 76.31326172 27.1418457 76.57324219 C35.70246134 78.96783866 42.610144 83.69290712 49.2734375 89.44921875 C49.95277344 90.0215625 50.63210938 90.59390625 51.33203125 91.18359375 C62.67545226 101.53197783 69.27798003 117.26849238 70.2734375 132.44921875 C70.35078125 133.51076172 70.35078125 133.51076172 70.4296875 134.59375 C70.64624197 140.03468115 69.93402669 145.23089437 68.9609375 150.57421875 C68.78449707 151.55938477 68.78449707 151.55938477 68.60449219 152.56445312 C67.91863666 156.07617374 66.99702998 159.35153951 65.71411133 162.69482422 C65.44423904 163.40186493 65.17436676 164.10890564 64.89631653 164.83737183 C64.69076645 165.36928131 64.48521637 165.9011908 64.2734375 166.44921875 C65.10997643 166.45280128 65.10997643 166.45280128 65.96341515 166.45645618 C79.5697234 166.51574187 93.1758544 166.59156392 106.78197289 166.68493366 C113.36196026 166.72959335 119.94188635 166.76885942 126.52197266 166.7956543 C132.87632426 166.82173081 139.23043944 166.86216459 145.58464432 166.91240501 C148.00459469 166.92904422 150.42458593 166.94057678 152.84458542 166.94683266 C156.24348273 166.95650553 159.64177921 166.98460411 163.04052734 167.0168457 C164.03315582 167.01541061 165.0257843 167.01397552 166.04849243 167.01249695 C177.49746306 167.16532174 186.82786504 170.37974609 195.21484375 178.27734375 C206.52650907 191.07931487 208.66282954 213.64831819 213.03375244 229.89801025 C213.96354031 233.35190444 214.89698127 236.80481109 215.83007812 240.2578125 C217.64802589 246.98734104 219.46204381 253.71792316 221.2734375 260.44921875 C221.9540625 259.85109375 222.6346875 259.25296875 223.3359375 258.63671875 C229.5470246 254.01144112 234.92841472 252.98857712 242.42578125 253.015625 C243.28474503 253.01038315 244.1437088 253.0051413 245.02870178 252.9997406 C246.83642501 252.99334774 248.64418999 252.99462176 250.4519043 253.00317383 C253.19981803 253.01168431 255.94565043 252.98288472 258.69335938 252.95117188 C260.45833272 252.94955946 262.2233097 252.95013816 263.98828125 252.953125 C264.79998276 252.94189102 265.61168427 252.93065704 266.44798279 252.91908264 C273.36172679 253.00248648 278.54935051 255.03213204 283.734375 259.6328125 C284.68183594 260.74849609 284.68183594 260.74849609 285.6484375 261.88671875 C286.29554688 262.62792969 286.94265625 263.36914062 287.609375 264.1328125 C291.84065962 270.02284015 291.63955369 275.70765676 291.6484375 282.69921875 C291.67292969 283.69824219 291.69742188 284.69726562 291.72265625 285.7265625 C291.75316564 293.5064568 290.39101221 299.65670518 285.37890625 305.75390625 C277.02410989 312.59428942 269.94206844 313.98397018 259.2734375 314.44921875 C259.61117188 315.06667969 259.94890625 315.68414062 260.296875 316.3203125 C260.74289062 317.16722656 261.18890625 318.01414062 261.6484375 318.88671875 C262.08929688 319.71042969 262.53015625 320.53414063 262.984375 321.3828125 C266.0648215 328.71054129 266.57168208 335.98832041 266.56396484 343.85913086 C266.57068207 344.85875351 266.57739929 345.85837616 266.58432007 346.88829041 C266.60320018 350.16776603 266.60721883 353.44703603 266.609375 356.7265625 C266.61580849 359.0214496 266.62253726 361.3163359 266.62954712 363.61122131 C266.64149392 368.41165061 266.64523048 373.21200807 266.64404297 378.01245117 C266.64383962 384.14664675 266.67117074 390.28037992 266.70558739 396.4144659 C266.72788048 401.15098668 266.73187981 405.88739645 266.73082352 410.62396431 C266.73317471 412.88486898 266.74197092 415.14577692 266.75748825 417.40662956 C266.77720211 420.57471584 266.77128914 423.74180798 266.75927734 426.90991211 C266.77051636 427.83229675 266.78175537 428.7546814 266.79333496 429.70501709 C266.71298303 438.0937876 264.62818988 445.32698488 258.7109375 451.44921875 C253.31430288 456.44921875 253.31430288 456.44921875 249.2734375 456.44921875 C249.29438477 457.36622559 249.31533203 458.28323242 249.33691406 459.22802734 C249.40565696 462.6760491 249.45550902 466.1233281 249.49316406 469.57177734 C249.51310731 471.05561923 249.5402724 472.5393843 249.57519531 474.02294922 C249.81633933 484.54108407 248.95516664 492.71005274 243.1484375 501.76171875 C234.13763069 510.18486424 224.70767858 510.2396916 212.97851562 510.10107422 C210.2785205 510.07426921 207.58268101 510.10090496 204.8828125 510.1328125 C194.7829251 510.15339417 186.21912984 509.89430228 178.38867188 502.72314453 C166.85012337 490.9342313 171.2734375 473.64507517 171.2734375 458.44921875 C120.7834375 458.44921875 70.2934375 458.44921875 18.2734375 458.44921875 C18.2734375 469.33921875 18.2734375 480.22921875 18.2734375 491.44921875 C13.74632907 500.50343562 13.74632907 500.50343562 9.8359375 503.82421875 C9.09472656 504.47132813 8.35351562 505.1184375 7.58984375 505.78515625 C2.25423701 509.61815536 -2.54611953 509.76843283 -8.90234375 509.78515625 C-9.78633347 509.79181305 -10.67032318 509.79846985 -11.58110046 509.80532837 C-13.44784472 509.81543184 -15.31462492 509.8201461 -17.18139648 509.81982422 C-20.0193319 509.82418841 -22.85569972 509.8605068 -25.69335938 509.8984375 C-27.51301556 509.90430817 -29.33267907 509.90827589 -31.15234375 509.91015625 C-31.99219315 509.92452728 -32.83204254 509.93889832 -33.69734192 509.95370483 C-40.71638528 509.89999316 -45.88668121 507.92848019 -51.1875 503.30078125 C-51.81914062 502.56601562 -52.45078125 501.83125 -53.1015625 501.07421875 C-53.74867188 500.34460938 -54.39578125 499.615 -55.0625 498.86328125 C-58.59194209 493.74310469 -58.94440037 488.9566518 -58.82421875 482.85546875 C-58.82015629 481.39844185 -58.81826926 479.94140756 -58.81835938 478.484375 C-58.81024897 476.21198718 -58.78890364 473.94306881 -58.73022461 471.67138672 C-58.19845526 462.82964651 -58.19845526 462.82964651 -61.70898438 455.16772461 C-63.99289297 453.66494766 -66.23749897 452.56353653 -68.7265625 451.44921875 C-75.32902417 444.67300809 -76.17341901 437.79767061 -76.14648438 428.76318359 C-76.15495392 427.71015045 -76.16342346 426.65711731 -76.17214966 425.57217407 C-76.19548874 422.10137748 -76.19654218 418.6310253 -76.1953125 415.16015625 C-76.20241817 412.73507512 -76.21011776 410.30999566 -76.21838379 407.88491821 C-76.23182321 402.80262584 -76.23340071 397.72048876 -76.22753906 392.63818359 C-76.22165721 386.15212281 -76.25217546 379.66681422 -76.29265594 373.18089867 C-76.31861997 368.17058354 -76.32140218 363.16044712 -76.31776428 358.15007401 C-76.31944876 355.76046491 -76.32902588 353.37084695 -76.34690857 350.98130417 C-76.45084339 335.37055916 -76.35441017 321.9508159 -65.73046875 309.4453125 C-59.00902499 302.7500732 -49.52919736 296.44921875 -39.7265625 296.44921875 C-39.60410156 295.46824219 -39.48164063 294.48726563 -39.35546875 293.4765625 C-38.75050994 289.24185083 -37.73531881 285.14911502 -36.6640625 281.01171875 C-36.47779297 280.28017578 -36.29152344 279.54863281 -36.09960938 278.79492188 C-35.6451867 277.01218677 -35.18633784 275.23058088 -34.7265625 273.44921875 C-35.26023438 273.23394531 -35.79390625 273.01867187 -36.34375 272.796875 C-39.60580436 270.95194261 -42.15322233 268.45167032 -44.8515625 265.88671875 C-46.01645624 264.79507026 -47.18182524 263.70392872 -48.34765625 262.61328125 C-48.92112793 262.07477539 -49.49459961 261.53626953 -50.08544922 260.98144531 C-53.91051652 257.41016855 -57.82850018 253.94030556 -61.7265625 250.44921875 C-63.3936195 248.94965256 -65.06028245 247.44964822 -66.7265625 245.94921875 C-67.5515625 245.20671875 -68.3765625 244.46421875 -69.2265625 243.69921875 C-75.05989583 238.44921875 -80.89322917 233.19921875 -86.7265625 227.94921875 C-87.54253906 227.21574219 -88.35851562 226.48226562 -89.19921875 225.7265625 C-90.96062266 224.13939329 -92.71814403 222.54790922 -94.47265625 220.953125 C-95.36082031 220.14746094 -96.24898438 219.34179688 -97.1640625 218.51171875 C-98.36869141 217.41537109 -98.36869141 217.41537109 -99.59765625 216.296875 C-103.11574514 213.24356116 -105.10064244 212.20006126 -109.69775391 212.17797852 C-111.21545883 212.16269859 -111.21545883 212.16269859 -112.76382446 212.14710999 C-114.40440323 212.14389992 -114.40440323 212.14389992 -116.078125 212.140625 C-118.39713779 212.11545185 -120.71614815 212.09005403 -123.03515625 212.06445312 C-126.68863217 212.035784 -130.34206558 212.01176774 -133.99560547 211.99291992 C-137.52334293 211.97116148 -141.05056706 211.93169847 -144.578125 211.890625 C-145.65969879 211.89050919 -146.74127258 211.89039337 -147.85562134 211.89027405 C-157.47030027 211.76584791 -164.88874646 210.10424698 -172 203.41796875 C-177.24636386 197.4356896 -178.87384469 190.99918037 -178.7890625 183.19921875 C-178.78003906 182.1215625 -178.77101562 181.04390625 -178.76171875 179.93359375 C-178.75011719 179.11375 -178.73851562 178.29390625 -178.7265625 177.44921875 C-179.56465454 177.47278442 -179.56465454 177.47278442 -180.41967773 177.49682617 C-183.0010324 177.55996799 -185.5822238 177.59845579 -188.1640625 177.63671875 C-189.04255859 177.66185547 -189.92105469 177.68699219 -190.82617188 177.71289062 C-199.73612164 177.81152476 -208.16825524 175.82806984 -214.7265625 169.44921875 C-221.37373868 160.64945961 -221.00752788 152.2923085 -221.07666016 141.68237305 C-221.09315123 139.83100758 -221.12034992 137.97970397 -221.15869141 136.12866211 C-221.59665063 114.84955657 -221.59665063 114.84955657 -213.99951172 106.56616211 C-208.68845714 101.35897324 -202.45833117 99.29694657 -195.1328125 99.15625 C-193.16384708 99.17593965 -191.19498194 99.21134581 -189.2265625 99.26171875 C-187.70675781 99.28202148 -187.70675781 99.28202148 -186.15625 99.30273438 C-183.67911846 99.33778812 -181.20313323 99.38692111 -178.7265625 99.44921875 C-178.76136719 98.68738281 -178.79617187 97.92554687 -178.83203125 97.140625 C-179.10167458 86.85565802 -177.80786856 79.80687901 -170.6328125 72.17578125 C-165.64431896 67.65751456 -160.38933695 65.28163494 -153.63525391 65.43432617 C-152.59631989 65.45311325 -151.55738586 65.47190033 -150.48696899 65.49125671 C-149.36205048 65.51218887 -148.23713196 65.53312103 -147.078125 65.5546875 C-143.43310939 65.57874404 -139.78813514 65.59221965 -136.14306641 65.60571289 C-133.63306014 65.62623902 -131.12313099 65.66632628 -128.61376953 65.72680664 C-112.49196334 66.68284599 -112.49196334 66.68284599 -98.38778687 60.24421692 C-95.94717979 57.78471421 -93.84795507 55.19100994 -91.7265625 52.44921875 C-90.42614151 51.24597557 -89.10083287 50.06737341 -87.7265625 48.94921875 C-84.15304464 45.86024568 -80.68945136 42.66079662 -77.2265625 39.44921875 C-73.14357377 35.66287969 -69.02886436 31.93154742 -64.81640625 28.2890625 C-62.08285057 25.88251161 -59.40568088 23.41591244 -56.7265625 20.94921875 C-52.11796589 16.71357629 -47.51184466 12.4855848 -42.7265625 8.44921875 C-42.00984375 7.84207031 -41.293125 7.23492187 -40.5546875 6.609375 C-29.07184198 -2.7550835 -14.1032443 -6.85908639 0 0 Z M-33.70703125 25.38671875 C-36.17333646 27.90549854 -38.79878307 30.17829685 -41.46875 32.4765625 C-44.22102738 34.88123391 -46.9128257 37.3491367 -49.6015625 39.82421875 C-54.94268237 44.73741259 -60.32452038 49.60301376 -65.7265625 54.44921875 C-67.39348897 55.94893003 -69.06015399 57.44893196 -70.7265625 58.94921875 C-71.54640625 59.6865625 -72.36625 60.42390625 -73.2109375 61.18359375 C-74.93174812 62.73339214 -76.6503988 64.28559126 -78.3671875 65.83984375 C-79.65882813 67.00773437 -79.65882813 67.00773437 -80.9765625 68.19921875 C-81.74484375 68.8953125 -82.513125 69.59140625 -83.3046875 70.30859375 C-85.7265625 72.44921875 -85.7265625 72.44921875 -88.82643127 74.36224365 C-90.92656546 76.12953886 -91.64588971 77.1149868 -92.29624748 79.80945587 C-92.53134647 82.87996122 -92.57135746 85.90185366 -92.55053711 88.98144531 C-92.5658699 90.14790085 -92.5812027 91.31435638 -92.59700012 92.51615906 C-92.6387197 96.37452307 -92.63581569 100.2312809 -92.62890625 104.08984375 C-92.63761954 106.09543756 -92.6463471 108.10103201 -92.65712649 110.10661578 C-92.69039069 116.41417693 -92.6917397 122.72120221 -92.67358398 129.02880859 C-92.65548762 135.51932202 -92.69233544 142.00788061 -92.75629419 148.49806046 C-92.80929343 154.08309487 -92.82712254 159.66751004 -92.81738096 165.2527864 C-92.8119616 168.58329233 -92.82362116 171.9112982 -92.86152458 175.24176788 C-92.89866452 178.96249929 -92.87823096 182.67875103 -92.84350586 186.39941406 C-92.86643707 187.49064072 -92.88936829 188.58186737 -92.91299438 189.7061615 C-92.78580725 195.89091346 -91.80236454 199.03157449 -87.39503479 203.49139404 C-85.86362505 204.83931705 -84.30841657 206.16086712 -82.7265625 207.44921875 C-81.45340777 208.57159097 -80.18212545 209.69609698 -78.9140625 210.82421875 C-77.94533203 211.65566406 -77.94533203 211.65566406 -76.95703125 212.50390625 C-74.16790468 214.93645447 -71.44737031 217.44098726 -68.7265625 219.94921875 C-65.4481864 222.96866901 -62.16074741 225.97124491 -58.7890625 228.88671875 C-55.19696229 231.99887238 -51.71131567 235.21821694 -48.2265625 238.44921875 C-33.11367777 254.52257672 -33.11367777 254.52257672 -13.98828125 261.859375 C-9.57099454 261.05831264 -5.9281202 258.51816755 -2.7265625 255.44921875 C0.49075823 250.32286119 0.70091007 246.19491799 0.65438843 240.34008789 C0.6590684 239.43264611 0.66374837 238.52520433 0.66857016 237.59026432 C0.68051969 234.55481845 0.67106297 231.51982408 0.66162109 228.484375 C0.66568681 226.30605811 0.67102868 224.12774329 0.67755127 221.94943237 C0.69123064 216.03629884 0.68592357 210.12332229 0.67641401 204.210186 C0.66882069 198.02301357 0.67586212 191.8358546 0.68057251 185.64868164 C0.686031 175.25827622 0.67883595 164.86793477 0.66455078 154.47753906 C0.64822413 142.46348612 0.65351256 130.44961122 0.67003 118.43555927 C0.68364215 108.1220408 0.68556583 97.80856831 0.67771399 87.49504375 C0.67303601 81.33457117 0.67241614 75.17417037 0.68232346 69.01370239 C0.69098684 63.22213717 0.6849825 57.43076894 0.66764069 51.63922501 C0.66367251 49.51316785 0.66481552 47.38709412 0.67142868 45.26104355 C0.67962101 42.35992143 0.66935025 39.45943141 0.65438843 36.55834961 C0.66108059 35.71612885 0.66777276 34.8739081 0.67466772 34.0061655 C0.61856698 28.40157267 -0.28545252 24.06425005 -4.26171875 19.8046875 C-15.54668248 11.17500935 -24.8032659 16.12544084 -33.70703125 25.38671875 Z M-155.7265625 83.44921875 C-160.50631196 88.39869611 -160.50631196 88.39869611 -161.34802246 93.81959534 C-161.35923126 94.63679047 -161.37044006 95.4539856 -161.38198853 96.29594421 C-161.36872528 97.17353897 -161.35546204 98.05113373 -161.34179688 98.95532227 C-161.35012039 100.36373383 -161.35012039 100.36373383 -161.35861206 101.80059814 C-161.37038999 104.8936318 -161.34615316 107.98519456 -161.3203125 111.078125 C-161.31860098 113.23233473 -161.3186675 115.38654654 -161.32043457 117.54075623 C-161.31878242 122.05073021 -161.30010176 126.56020647 -161.26855469 131.07006836 C-161.22885397 136.84947451 -161.22451295 142.62822966 -161.23201752 148.40774632 C-161.23508745 152.85416116 -161.22296617 157.30042978 -161.20588684 161.74680901 C-161.19885873 163.87784851 -161.19573208 166.00890459 -161.19657898 168.13995552 C-161.19478047 171.11777822 -161.17339428 174.09482186 -161.14648438 177.07250977 C-161.14941498 177.95212875 -161.15234558 178.83174774 -161.15536499 179.73802185 C-161.0901022 184.42078605 -160.87925622 187.72003262 -157.7265625 191.44921875 C-143.70118867 198.46190567 -126.40740715 193.44921875 -110.7265625 193.44921875 C-110.7265625 157.14921875 -110.7265625 120.84921875 -110.7265625 83.44921875 C-125.5765625 83.44921875 -140.4265625 83.44921875 -155.7265625 83.44921875 Z M18.2734375 93.44921875 C18.2734375 123.14921875 18.2734375 152.84921875 18.2734375 183.44921875 C31.93904267 178.89401703 40.76958248 172.43251434 47.6484375 159.57421875 C53.70754561 146.63275414 53.20523878 133.94890148 49.2734375 120.44921875 C44.42749267 108.18242112 35.62515547 99.97245461 23.83984375 94.41015625 C21.26191995 93.27389137 21.26191995 93.27389137 18.2734375 93.44921875 Z M-197.7265625 117.44921875 C-202.9263656 121.70240061 -202.9263656 121.70240061 -203.35766602 125.89086914 C-203.35694092 127.17985107 -203.35621582 128.46883301 -203.35546875 129.796875 C-203.35788071 130.49058701 -203.36029266 131.18429901 -203.36277771 131.89903259 C-203.36180218 133.35893497 -203.34847824 134.81887568 -203.32348633 136.27856445 C-203.28910048 138.50925487 -203.30285453 140.73599561 -203.32226562 142.96679688 C-203.31536829 144.38933972 -203.3056969 145.81187238 -203.29296875 147.234375 C-203.28209229 148.522229 -203.27121582 149.81008301 -203.26000977 151.13696289 C-202.6435848 154.96444002 -201.75095069 156.11670485 -198.7265625 158.44921875 C-192.75626565 161.43436717 -185.4015573 159.44921875 -178.7265625 159.44921875 C-178.7265625 145.58921875 -178.7265625 131.72921875 -178.7265625 117.44921875 C-184.9965625 117.44921875 -191.2665625 117.44921875 -197.7265625 117.44921875 Z M42.37494087 191.53753757 C39.63147493 194.03319486 37.10386954 195.29274817 33.7109375 196.76171875 C32.69902344 197.21160156 31.68710938 197.66148437 30.64453125 198.125 C27.96250596 199.1785418 25.29636929 200.12876118 22.56274414 201.03198242 C21.75785049 201.29847092 20.95295685 201.56495941 20.12367249 201.83952332 C19.51309494 202.04072281 18.9025174 202.2419223 18.2734375 202.44921875 C18.26979187 203.06816513 18.26614624 203.68711151 18.26239014 204.32481384 C18.22040434 210.79837874 18.15094668 217.27124523 18.06591797 223.74438477 C18.03778642 226.1564229 18.01653324 228.56855188 18.00244141 230.98071289 C17.98090423 234.45896657 17.93419616 237.93613687 17.8828125 241.4140625 C17.88096954 243.01772926 17.88096954 243.01772926 17.87908936 244.65379333 C17.68486686 254.70421211 14.35292633 263.18584709 7.2734375 270.44921875 C0.12046051 276.28245829 -7.77293601 277.97845013 -16.7265625 279.44921875 C-17.39840868 281.55173736 -18.06387218 283.65629638 -18.7265625 285.76171875 C-19.0978125 286.93347656 -19.4690625 288.10523438 -19.8515625 289.3125 C-20.86091022 292.38808551 -20.86091022 292.38808551 -20.7265625 295.44921875 C-11.90420323 297.83847549 -2.38625815 298.92526092 6.2734375 295.44921875 C18.84102174 288.06157925 28.83169295 275.51151784 38.605896 264.91241455 C42.3392727 260.89334058 46.14959571 256.94870212 49.95507812 252.99804688 C54.21955366 248.56255566 58.47469647 244.1201269 62.676651 239.6252594 C63.31006409 238.94784698 63.94347717 238.27043457 64.59608459 237.57249451 C65.77869109 236.30478659 66.95883395 235.03477433 68.13607788 233.76208496 C72.97783694 228.56918176 72.97783694 228.56918176 77.6484375 228.13671875 C81.2734375 228.44921875 81.2734375 228.44921875 83.6484375 230.13671875 C85.48173056 232.74563579 86.1182653 234.26818861 86.2734375 237.44921875 C84.95315798 241.9702172 82.58896071 244.49331102 79.27294922 247.77441406 C78.7654715 248.28072357 78.25799377 248.78703308 77.73513794 249.3086853 C76.06467413 250.97199043 74.38395917 252.62452478 72.703125 254.27734375 C71.53940531 255.43292483 70.37642093 256.58924683 69.21414185 257.74627686 C66.15946587 260.7838629 63.09632285 263.81275813 60.03088379 266.83947754 C55.11495094 271.69611699 50.21176951 276.56562381 45.30902481 281.43556976 C43.59215206 283.13843117 41.87155091 284.8374542 40.15036011 286.53594971 C39.10520624 287.57108682 38.06012758 288.60629989 37.01513672 289.64160156 C36.09739471 290.54807434 35.17965271 291.45454712 34.23410034 292.38848877 C32.1585545 294.09589268 32.1585545 294.09589268 32.2734375 295.44921875 C48.41271621 300.10040145 67.64519937 303.27094035 83.2734375 295.44921875 C107.33140952 280.38770562 127.01892763 255.04602727 145.4030056 233.7621479 C149.06316557 229.55435472 149.06316557 229.55435472 151.2734375 228.44921875 C153.3671875 228.46484375 153.3671875 228.46484375 155.7734375 228.69921875 C156.96453125 228.79976562 156.96453125 228.79976562 158.1796875 228.90234375 C160.2734375 229.44921875 160.2734375 229.44921875 162.2734375 232.44921875 C163.26873219 238.97392841 163.26873219 238.97392841 161.06504822 242.2403717 C160.5188533 242.8353093 159.97265839 243.43024689 159.40991211 244.04321289 C158.7718161 244.73883331 158.13372009 245.43445374 157.47628784 246.15115356 C153.70822498 250.0820852 149.88122417 253.94982345 146.01431465 257.78350639 C144.49488001 259.28999974 142.97874795 260.79975109 141.46336365 262.31031799 C138.25705592 265.50530632 135.04677459 268.69628316 131.8359375 271.88671875 C128.08855646 275.61048681 124.34282767 279.33588737 120.60124016 283.06547737 C119.10528866 284.55493464 117.60636807 286.04135988 116.10731506 287.5276947 C115.20895432 288.42275223 114.31059357 289.31780975 113.38500977 290.23999023 C112.58893814 291.03082504 111.79286652 291.82165985 110.97267151 292.63645935 C109.15945545 294.15670734 109.15945545 294.15670734 109.2734375 295.44921875 C142.9334375 295.44921875 176.5934375 295.44921875 211.2734375 295.44921875 C203.02095073 263.33407614 203.02095073 263.33407614 194.55102539 231.27685547 C193.80990084 228.50971833 193.07471392 225.741094 192.34399414 222.97119141 C191.43464254 219.5243998 190.51560688 216.08032903 189.58959389 212.6379776 C189.08248838 210.74366906 188.5849316 208.84681235 188.08769226 206.94989014 C185.28341018 196.27598291 185.28341018 196.27598291 178.2734375 188.07421875 C174.14619682 185.83863005 170.9286478 185.32555113 166.26608276 185.27513123 C165.25692307 185.26219528 164.24776337 185.24925934 163.20802307 185.2359314 C162.10667526 185.22695831 161.00532745 185.21798523 159.87060547 185.20874023 C158.70590225 185.19574387 157.54119904 185.1827475 156.34120178 185.1693573 C145.60577449 185.05764529 134.86962765 184.99681218 124.13371086 184.95258999 C116.20752568 184.9193845 108.28248682 184.85987532 100.35679328 184.76507896 C94.77275425 184.70056546 89.18902598 184.66702586 83.60462868 184.65584046 C80.27458408 184.64830864 76.94702092 184.62325267 73.61718369 184.57281303 C69.8947384 184.51924822 66.17538687 184.51635765 62.45263672 184.52514648 C61.3634343 184.49795532 60.27423187 184.47076416 59.15202332 184.44274902 C51.70612036 184.53303982 47.86217206 186.51945549 42.37494087 191.53753757 Z M233.83105469 273.69824219 C232.23115662 276.52389288 231.79591162 277.90014274 231.8828125 281.09375 C231.89570313 281.93486328 231.90859375 282.77597656 231.921875 283.64257812 C231.95539063 284.50689453 231.98890625 285.37121094 232.0234375 286.26171875 C232.04148437 287.14537109 232.05953125 288.02902344 232.078125 288.93945312 C232.12505237 291.10984418 232.19679019 293.27967394 232.2734375 295.44921875 C237.30877986 295.54831715 242.34355092 295.62079455 247.37963867 295.66894531 C249.09165336 295.6890238 250.80359978 295.71629267 252.51538086 295.75097656 C254.98047758 295.79966276 257.4446654 295.82222448 259.91015625 295.83984375 C261.05263069 295.87081146 261.05263069 295.87081146 262.21818542 295.90240479 C265.89173534 295.90394548 268.08131571 295.56449182 271.25683594 293.65917969 C274.14509377 290.49398479 273.9723001 287.51798395 273.8359375 283.44921875 C273.85237305 282.381875 273.85237305 282.381875 273.86914062 281.29296875 C273.82402284 278.06855084 273.59678689 275.90251182 271.70483398 273.25024414 C268.46898869 270.85333373 265.68356226 270.8548753 261.8046875 270.8828125 C261.0873645 270.87661392 260.3700415 270.87041534 259.63098145 270.86402893 C258.11809646 270.85694178 256.6051333 270.86008567 255.09228516 270.87280273 C252.78011424 270.88667868 250.47198592 270.85258183 248.16015625 270.81445312 C246.68749901 270.81350193 245.21483672 270.8153608 243.7421875 270.8203125 C243.05354614 270.80705429 242.36490479 270.79379608 241.65539551 270.78013611 C238.04253178 270.8500703 236.52215679 271.22019015 233.83105469 273.69824219 Z M-52.7265625 322.44921875 C-56.34324614 327.84790913 -57.84271802 331.95344462 -57.7265625 338.44921875 C-56.94030991 338.45286438 -56.15405731 338.45651001 -55.34397888 338.46026611 C-47.91423198 338.49821968 -40.48498244 338.55515501 -33.0555563 338.63312149 C-29.2364836 338.67253822 -25.41763945 338.70475478 -21.59838867 338.72021484 C-17.90873991 338.73542025 -14.21971972 338.76993301 -10.53035164 338.81752777 C-9.12669417 338.83230188 -7.72294693 338.84025748 -6.31921196 338.8411026 C7.46354369 338.85773763 7.46354369 338.85773763 13.2734375 343.44921875 C15.34361571 345.96274443 16.78973944 348.54813316 18.2734375 351.44921875 C18.76408691 352.38217773 18.76408691 352.38217773 19.26464844 353.33398438 C20.39723566 355.50620786 21.49544742 357.69308345 22.5859375 359.88671875 C22.9480835 360.59014404 23.31022949 361.29356934 23.68334961 362.01831055 C26.70168174 368.30088075 27.45388312 374.03904251 25.1484375 380.69921875 C22.2986428 384.87891765 19.16750779 387.81786199 14.2734375 389.44921875 C11.95880046 389.56757653 9.64097455 389.62622964 7.32348633 389.65454102 C6.26944359 389.66939041 6.26944359 389.66939041 5.19410706 389.68453979 C2.87292849 389.71611109 0.55172945 389.74089488 -1.76953125 389.765625 C-3.37950673 389.78619831 -4.98947686 389.80719488 -6.59944153 389.82859802 C-10.83592388 389.88377981 -15.07245466 389.93320624 -19.309021 389.98144531 C-23.63249011 390.03168876 -27.95588894 390.08735998 -32.27929688 390.14257812 C-40.76165931 390.25011209 -49.24408057 390.35156762 -57.7265625 390.44921875 C-57.8534707 396.76613891 -57.94095835 403.08272969 -58.0012207 409.40063477 C-58.02634535 411.54919724 -58.06045111 413.6976744 -58.10375977 415.84594727 C-58.16450042 418.93657487 -58.19279294 422.02607138 -58.21484375 425.1171875 C-58.24065018 426.07570114 -58.2664566 427.03421478 -58.29304504 428.02177429 C-58.2934227 428.92233047 -58.29380035 429.82288666 -58.29418945 430.75073242 C-58.30529251 431.53904953 -58.31639557 432.32736664 -58.32783508 433.13957214 C-57.3554549 436.87474093 -55.82411025 438.13145629 -52.7265625 440.44921875 C-48.79654314 441.20642312 -44.90666803 441.11905478 -40.91490173 441.07740784 C-39.70472037 441.08450222 -38.49453901 441.09159661 -37.24768549 441.09890598 C-33.89133445 441.11346694 -30.53639348 441.10558819 -27.18014562 441.08818305 C-23.55977039 441.07481957 -19.93950244 441.09024234 -16.31913757 441.102005 C-9.22835253 441.12039315 -2.13784287 441.11186182 4.95293362 441.09391678 C10.71462342 441.07989753 16.47623842 441.07599651 22.23794365 441.07935905 C23.05761824 441.0798365 23.87729282 441.08031394 24.72180603 441.08080585 C26.38688745 441.08183217 28.05196886 441.08288752 29.71705025 441.08397161 C44.4433393 441.09254091 59.16949528 441.07585567 73.89575195 441.04614258 C88.1910562 441.01729934 102.48616877 441.01022381 116.78149414 441.02563477 C132.34325247 441.04238798 147.90491978 441.04644054 163.46668047 441.02892441 C165.12536934 441.02707999 166.78405822 441.02524526 168.44274712 441.02342033 C169.25888597 441.02250824 170.07502482 441.02159615 170.91589515 441.02065643 C176.67239583 441.01504595 182.42885214 441.01836291 188.18535042 441.02496529 C195.19806132 441.03268907 202.21058339 441.02598039 209.22325618 441.00079025 C212.80252676 440.9882734 216.38150305 440.98217484 219.96078491 440.99333191 C223.83695931 441.00518651 227.71262346 440.98615726 231.58876038 440.96388245 C232.72541911 440.97212321 233.86207784 440.98036398 235.03318077 440.98885447 C236.06914656 440.97780678 237.10511235 440.96675909 238.17247105 440.95537663 C239.06741954 440.95418514 239.96236804 440.95299366 240.88443619 440.95176607 C244.04341381 440.2872475 245.23718608 438.89381539 247.2734375 436.44921875 C248.4384874 434.11911895 248.3943733 432.77674798 248.38696289 430.18310547 C248.38684959 428.86196243 248.38684959 428.86196243 248.38673401 427.51412964 C248.38157272 426.56200592 248.37641144 425.6098822 248.37109375 424.62890625 C248.3696788 423.65511017 248.36826385 422.68131409 248.36680603 421.67800903 C248.36119723 418.56004802 248.34864323 415.44215815 248.3359375 412.32421875 C248.33092363 410.2135427 248.32636053 408.10286553 248.32226562 405.9921875 C248.31122495 400.81117354 248.29447823 395.63020123 248.2734375 390.44921875 C247.38918091 390.44557312 246.50492432 390.44192749 245.59387207 390.43817139 C237.23737174 390.40021534 228.88125867 390.3432764 220.52503204 390.26531601 C216.22956371 390.22590238 211.9342985 390.19368413 207.63867188 390.17822266 C203.48869852 390.16301548 199.33928381 390.12849884 195.18955994 390.08090973 C193.61088431 390.06613758 192.03212891 390.05818013 190.4533844 390.0573349 C174.97296016 390.04072004 174.97296016 390.04072004 168.2734375 385.44921875 C164.68864606 381.31292094 163.46153506 377.90404798 163.2734375 372.44921875 C164.56541673 365.61374724 167.22608754 359.86189859 170.3984375 353.69921875 C170.84703125 352.76722656 171.295625 351.83523438 171.7578125 350.875 C172.21929687 349.97652344 172.68078125 349.07804687 173.15625 348.15234375 C173.76557373 346.94046387 173.76557373 346.94046387 174.38720703 345.70410156 C178.01734399 341.36447628 181.97286355 339.72205134 187.46072388 339.07122803 C191.32784443 338.89065672 195.18451679 338.84218281 199.0546875 338.83984375 C200.47816836 338.82484133 201.90163194 338.80810989 203.32507324 338.78973389 C207.04696509 338.74627851 210.76862223 338.72611031 214.49072266 338.71099854 C218.29864252 338.69134804 222.10631179 338.64938737 225.9140625 338.609375 C233.36711977 338.53430977 240.82007107 338.48387577 248.2734375 338.44921875 C248.00743675 336.87044275 247.72729183 335.29404664 247.44140625 333.71875 C247.28696045 332.84065674 247.13251465 331.96256348 246.97338867 331.05786133 C245.25937724 324.66992545 240.51320676 320.21005587 235.27734375 316.45703125 C228.83961117 313.21934118 222.60625165 313.16164735 215.54568481 313.18852234 C213.94140241 313.18278402 213.94140241 313.18278402 212.30471027 313.17692977 C208.72669021 313.1666243 205.14883136 313.17058732 201.57080078 313.17456055 C199.00312146 313.17021272 196.43544343 313.16502934 193.86776733 313.15907288 C187.62055758 313.14633873 181.37339084 313.14453059 175.12617029 313.14687314 C170.04679457 313.14865794 164.96743188 313.14690318 159.88805771 313.1426487 C159.16446 313.14205351 158.44086229 313.14145832 157.69533738 313.14084509 C156.2252257 313.13963331 154.75511401 313.13841918 153.28500234 313.13720272 C139.50534454 313.12633207 125.72571123 313.12848738 111.94605206 313.13458756 C99.34928623 313.13975597 86.75259774 313.12850245 74.15584721 313.10948934 C61.21128277 313.09010154 48.26675491 313.08185662 35.32217586 313.0856126 C28.05888567 313.08752325 20.79566129 313.08505033 13.53238297 313.07089806 C6.70171315 313.05772305 -0.12879946 313.06025709 -6.95946884 313.07330894 C-9.46483411 313.07567585 -11.97021025 313.07293598 -14.47556305 313.06468582 C-17.89883587 313.05422676 -21.32158832 313.06231293 -24.74484253 313.07499695 C-26.22749959 313.06393552 -26.22749959 313.06393552 -27.74010932 313.05265063 C-37.263507 313.12674576 -45.96324637 315.40654826 -52.7265625 322.44921875 Z M-57.7265625 356.44921875 C-57.7265625 361.72921875 -57.7265625 367.00921875 -57.7265625 372.44921875 C-35.9465625 372.44921875 -14.1665625 372.44921875 8.2734375 372.44921875 C6.15558637 365.62426084 6.15558637 365.62426084 1.2734375 356.44921875 C-18.1965625 356.44921875 -37.6665625 356.44921875 -57.7265625 356.44921875 Z M189.2734375 356.44921875 C186.6334375 361.72921875 183.9934375 367.00921875 181.2734375 372.44921875 C203.3834375 372.44921875 225.4934375 372.44921875 248.2734375 372.44921875 C248.2734375 367.16921875 248.2734375 361.88921875 248.2734375 356.44921875 C228.8034375 356.44921875 209.3334375 356.44921875 189.2734375 356.44921875 Z M-40.7265625 458.44921875 C-40.8090625 463.15171875 -40.8915625 467.85421875 -40.9765625 472.69921875 C-41.01297852 474.17680664 -41.04939453 475.65439453 -41.08691406 477.17675781 C-41.0969043 478.34432617 -41.10689453 479.51189453 -41.1171875 480.71484375 C-41.13813477 481.90883789 -41.15908203 483.10283203 -41.18066406 484.33300781 C-40.94481337 487.47980464 -40.94481337 487.47980464 -39.16894531 489.83691406 C-35.9002768 491.99467964 -33.04946756 492.02505036 -29.2578125 491.98046875 C-28.5404895 491.98429565 -27.8231665 491.98812256 -27.08410645 491.99206543 C-25.57119336 491.99478102 -24.05823305 491.9874443 -22.54541016 491.97070312 C-20.23363274 491.94928426 -17.92496237 491.97051226 -15.61328125 491.99609375 C-14.14061816 491.99345041 -12.667957 491.98832528 -11.1953125 491.98046875 C-10.50667114 491.98856567 -9.81802979 491.9966626 -9.10852051 492.00500488 C-5.91548845 491.94282489 -3.96866154 491.60903703 -1.28417969 489.83691406 C0.80203394 486.63892515 0.73076446 484.5168552 0.6640625 480.71484375 C0.65407227 479.54727539 0.64408203 478.37970703 0.63378906 477.17675781 C0.59737305 475.69916992 0.56095703 474.22158203 0.5234375 472.69921875 C0.4409375 467.99671875 0.3584375 463.29421875 0.2734375 458.44921875 C-13.2565625 458.44921875 -26.7865625 458.44921875 -40.7265625 458.44921875 Z M189.2734375 458.44921875 C189.1703125 462.96609375 189.0671875 467.48296875 188.9609375 472.13671875 C188.91541748 473.55299561 188.86989746 474.96927246 188.82299805 476.4284668 C188.81051025 477.55293213 188.79802246 478.67739746 188.78515625 479.8359375 C188.75897217 480.98280029 188.73278809 482.12966309 188.70581055 483.3112793 C189.47026381 487.53730846 190.81995174 488.94230361 194.2734375 491.44921875 C197.77223991 492.19806813 197.77223991 492.19806813 201.62109375 492.078125 C202.31480576 492.08053696 203.00851776 492.08294891 203.72325134 492.08543396 C205.18315372 492.08445843 206.64309443 492.07113449 208.1027832 492.04614258 C210.33347362 492.01175673 212.56021436 492.02551078 214.79101562 492.04492188 C216.21355847 492.03802454 217.63609113 492.02835315 219.05859375 492.015625 C220.34644775 492.00474854 221.63430176 491.99387207 222.96118164 491.98266602 C226.78865877 491.36624105 227.9409236 490.47360694 230.2734375 487.44921875 C231.65652531 484.68304312 231.38553946 482.43903875 231.37109375 479.34765625 C231.36859619 478.25630371 231.36609863 477.16495117 231.36352539 476.04052734 C231.35442139 474.64914551 231.34531738 473.25776367 231.3359375 471.82421875 C231.3153125 467.41046875 231.2946875 462.99671875 231.2734375 458.44921875 C217.4134375 458.44921875 203.5534375 458.44921875 189.2734375 458.44921875 Z " fill="#000000" transform="translate(220.7265625,2.55078125)"/>
<path d="M0 0 C0.90763596 -0.0049649 1.81527191 -0.00992981 2.75041199 -0.01504517 C5.7570369 -0.02966584 8.76360903 -0.03646877 11.77026367 -0.04199219 C13.85910544 -0.04774387 15.9479472 -0.0535016 18.03678894 -0.05926514 C22.41905971 -0.06977496 26.80131214 -0.0756177 31.18359375 -0.07910156 C36.79588424 -0.08458519 42.40793199 -0.10861061 48.02014637 -0.13707352 C52.33616339 -0.15570776 56.65212204 -0.16090593 60.96817589 -0.16243744 C63.03700779 -0.16546288 65.1058387 -0.17348775 67.17463112 -0.18662262 C70.07103504 -0.20369878 72.96684726 -0.2017989 75.86328125 -0.1953125 C77.1423082 -0.20913467 77.1423082 -0.20913467 78.44717407 -0.22323608 C84.26588573 -0.18246666 88.56063981 0.79500965 92.98901367 4.87988281 C93.46725586 5.46769531 93.94549805 6.05550781 94.43823242 6.66113281 C95.17493164 7.54285156 95.17493164 7.54285156 95.92651367 8.44238281 C99.40614086 13.42947064 98.39059159 20.03962696 98.43823242 25.84863281 C98.48173828 27.58790039 98.48173828 27.58790039 98.52612305 29.36230469 C98.57858411 36.46068975 98.04273815 41.17290463 94.12573242 47.16113281 C88.2187961 51.86257193 83.49648495 52.31541753 76.17553711 52.33813477 C75.25975388 52.34470596 74.34397064 52.35127716 73.4004364 52.35804749 C70.36615925 52.37777705 67.33193159 52.38944253 64.29760742 52.39941406 C63.26100227 52.40348959 62.22439713 52.40756512 61.1563797 52.41176414 C55.66944071 52.43262372 50.18252671 52.44692578 44.69555664 52.45629883 C39.03172752 52.46736119 33.36829149 52.50175967 27.70460129 52.54147053 C23.34650956 52.56763132 18.98851155 52.57599022 14.63034821 52.57958031 C12.54279171 52.58444786 10.45523944 52.59606662 8.3677597 52.6146183 C5.4426927 52.63899722 2.51864362 52.63804681 -0.40649414 52.63110352 C-1.69415428 52.6503186 -1.69415428 52.6503186 -3.00782776 52.66992188 C-8.78608815 52.6200566 -12.11774812 51.48291311 -16.87426758 48.16113281 C-22.54916285 41.88888014 -22.12323049 36.60140369 -22.16943359 28.52246094 C-22.1865914 26.43259233 -22.23046976 24.34432948 -22.2746582 22.25488281 C-22.28479069 20.91635274 -22.29330505 19.57780925 -22.30004883 18.23925781 C-22.31463135 17.02657227 -22.32921387 15.81388672 -22.34423828 14.56445312 C-21.77892579 10.47070968 -20.44029867 8.36411376 -17.87426758 5.16113281 C-11.84359824 0.60736209 -7.3706241 0.00959447 0 0 Z M-3.87426758 18.16113281 C-3.87426758 23.44113281 -3.87426758 28.72113281 -3.87426758 34.16113281 C23.84573242 34.16113281 51.56573242 34.16113281 80.12573242 34.16113281 C80.12573242 28.88113281 80.12573242 23.60113281 80.12573242 18.16113281 C52.40573242 18.16113281 24.68573242 18.16113281 -3.87426758 18.16113281 Z " fill="#000000" transform="translate(277.874267578125,374.8388671875)"/>
<path d="M0 0 C0.89110474 -0.00241196 1.78220947 -0.00482391 2.70031738 -0.00730896 C4.57971661 -0.00633178 6.45914507 0.00703114 8.33837891 0.03198242 C11.2096568 0.06629758 14.07785638 0.05263414 16.94921875 0.03320312 C18.77865889 0.04010187 20.60809111 0.04977452 22.4375 0.0625 C23.72049988 0.0550602 23.72049988 0.0550602 25.02941895 0.04747009 C29.04830465 0.12659687 31.22706634 0.33226507 34.73632812 2.44946289 C37.48952202 5.47628086 37.71875 7.57942298 37.71875 11.62890625 C36.13036066 15.20278227 35.00240642 16.43980197 31.71875 18.62890625 C28.73143295 18.83751778 25.83968218 18.9329151 22.8515625 18.9296875 C21.97982391 18.93397263 21.10808533 18.93825775 20.20993042 18.94267273 C18.36571114 18.94841536 16.52146921 18.94891678 14.67724609 18.94458008 C11.86125804 18.94142586 9.04632645 18.96485963 6.23046875 18.99023438 C4.43750132 18.99250801 2.64453108 18.99321057 0.8515625 18.9921875 C0.01182892 19.00139725 -0.82790466 19.01060699 -1.69308472 19.02009583 C-6.37063911 18.98325132 -9.48845229 18.6801604 -13.28125 15.62890625 C-14.86023053 12.47094518 -15.10053171 9.02219989 -14.28125 5.62890625 C-10.06177323 0.01876422 -6.54089258 -0.10138799 0 0 Z " fill="#000000" transform="translate(304.28125,340.37109375)"/>
</svg>
