<?xml version="1.0" encoding="UTF-8"?>
<svg version="1.1" xmlns="http://www.w3.org/2000/svg" width="512" height="512">
<path d="M0 0 C1.28375519 0.00081573 1.28375519 0.00081573 2.59344482 0.00164795 C16.41512844 0.04191247 29.54933752 0.98898253 43 4.375 C43.87140625 4.58398926 44.7428125 4.79297852 45.640625 5.00830078 C86.38704017 14.9491751 123.39534578 39.12847642 149 72.375 C149.39687012 72.8901416 149.79374023 73.4052832 150.20263672 73.93603516 C180.374187 113.51450275 193.10107913 163.86333888 186.875 213.125 C180.01470042 261.86056819 154.6418598 306.94301603 115.36328125 336.8515625 C114.24319392 337.69404804 113.12218759 338.53531404 112 339.375 C111.16855469 340.00148438 110.33710938 340.62796875 109.48046875 341.2734375 C104.28530677 345.04369134 98.82767891 348.35019618 93.3125 351.625 C92.59924561 352.04982666 91.88599121 352.47465332 91.15112305 352.91235352 C90.11145386 353.5203479 90.11145386 353.5203479 89.05078125 354.140625 C88.43887939 354.49930664 87.82697754 354.85798828 87.1965332 355.22753906 C84.21590249 356.78460968 81.09092886 358.0503162 78 359.375 C132.45 359.87 132.45 359.87 188 360.375 C188 375.225 188 390.075 188 405.375 C184.37 406.035 180.74 406.695 177 407.375 C173.65508089 410.71991911 173.62343122 411.02248463 173.61181641 415.44140625 C173.60235992 416.47257568 173.59290344 417.50374512 173.5831604 418.56616211 C173.58923309 419.67870361 173.59530579 420.79124512 173.6015625 421.9375 C173.59869232 423.08033447 173.59582214 424.22316895 173.59286499 425.40063477 C173.59082243 427.81820165 173.59636562 430.23578499 173.60888672 432.65332031 C173.62493679 436.36040085 173.60904359 440.066391 173.58984375 443.7734375 C173.59182615 446.11979408 173.59566975 448.46614998 173.6015625 450.8125 C173.59245346 452.48131226 173.59245346 452.48131226 173.5831604 454.18383789 C173.59261688 455.21500732 173.60207336 456.24617676 173.61181641 457.30859375 C173.61420319 458.21665771 173.61658997 459.12472168 173.61904907 460.06030273 C173.83837083 462.79626115 173.83837083 462.79626115 177 465.375 C180.63 466.035 184.26 466.695 188 467.375 C188 482.225 188 497.075 188 512.375 C133.22 512.375 78.44 512.375 22 512.375 C22 507.425 22 502.475 22 497.375 C71.5 497.375 121 497.375 172 497.375 C172 492.425 172 487.475 172 482.375 C58.48 482.375 -55.04 482.375 -172 482.375 C-172 487.325 -172 492.275 -172 497.375 C-122.5 497.375 -73 497.375 -22 497.375 C-22 502.325 -22 507.275 -22 512.375 C-76.78 512.375 -131.56 512.375 -188 512.375 C-188 497.525 -188 482.675 -188 467.375 C-184.37 466.715 -180.74 466.055 -177 465.375 C-173.65508089 462.03008089 -173.62343122 461.72751537 -173.61181641 457.30859375 C-173.59763168 455.7618396 -173.59763168 455.7618396 -173.5831604 454.18383789 C-173.58923309 453.07129639 -173.59530579 451.95875488 -173.6015625 450.8125 C-173.59869232 449.66966553 -173.59582214 448.52683105 -173.59286499 447.34936523 C-173.59082243 444.93179835 -173.59636562 442.51421501 -173.60888672 440.09667969 C-173.62493679 436.38959915 -173.60904359 432.683609 -173.58984375 428.9765625 C-173.59182615 426.63020592 -173.59566975 424.28385002 -173.6015625 421.9375 C-173.59548981 420.8249585 -173.58941711 419.71241699 -173.5831604 418.56616211 C-173.59261688 417.53499268 -173.60207336 416.50382324 -173.61181641 415.44140625 C-173.61420319 414.53334229 -173.61658997 413.62527832 -173.61904907 412.68969727 C-173.83837083 409.95373885 -173.83837083 409.95373885 -177 407.375 C-180.63 406.715 -184.26 406.055 -188 405.375 C-188 390.525 -188 375.675 -188 360.375 C-151.7 360.045 -115.4 359.715 -78 359.375 C-83.28 356.735 -88.56 354.095 -94 351.375 C-137.72152467 325.53955361 -169.77758044 284.10190065 -182.65673828 234.86425781 C-183.98741857 229.40444287 -185.0624271 223.91487011 -186 218.375 C-186.11714355 217.70146484 -186.23428711 217.02792969 -186.35498047 216.33398438 C-194.1351642 169.58351926 -182.2082547 119.10140414 -155 80.4375 C-149.99613462 73.47314085 -144.63118035 66.84089071 -139 60.375 C-135.54798361 61.85221422 -133.35038064 63.81294001 -130.75 66.5 C-130.04359375 67.22445312 -129.3371875 67.94890625 -128.609375 68.6953125 C-128.07828125 69.24960938 -127.5471875 69.80390625 -127 70.375 C-128.28135718 74.07244859 -129.69093856 76.36130824 -132.4375 79.125 C-161.0936821 110.43356919 -172.71928593 155.87946746 -171.1640625 197.32617188 C-168.82161945 240.85657186 -149.20976898 282.56307753 -117.81640625 312.74609375 C-83.10421349 343.87509242 -38.01836089 361.55734768 8.875 359.1875 C24.39566812 358.15916098 39.25825449 355.30548026 54 350.375 C54.64469238 350.16536621 55.28938477 349.95573242 55.95361328 349.73974609 C80.5470176 341.63758221 100.90886384 327.51026606 120 310.375 C120.67417969 309.77429688 121.34835937 309.17359375 122.04296875 308.5546875 C152.390874 279.86474382 169.73869801 235.31213558 171.28125 194.203125 C172.37901026 144.95638006 153.84910585 102.22158982 121.0703125 66.2578125 C91.02415956 35.06156759 47.12764805 17.93719295 4.32421875 16.41015625 C-37.04755839 15.66760593 -76.97900567 29.3522601 -108.90234375 55.6796875 C-111.49706955 57.77672846 -114.18131165 59.59477578 -117 61.375 C-118.7021698 59.8074482 -120.38640554 58.22040216 -122.0625 56.625 C-123.00222656 55.74328125 -123.94195312 54.8615625 -124.91015625 53.953125 C-127 51.375 -127 51.375 -126.80883789 49.38037109 C-125.40780132 45.90674766 -122.26586276 43.97628011 -119.375 41.75 C-118.70275391 41.22438477 -118.03050781 40.69876953 -117.33789062 40.15722656 C-95.68894993 23.44133899 -72.10438611 11.65695693 -45.5 4.9375 C-44.5706665 4.70272949 -43.64133301 4.46795898 -42.68383789 4.22607422 C-28.48751372 0.85449402 -14.52154385 -0.03489146 0 0 Z M-172 375.375 C-172 380.325 -172 385.275 -172 390.375 C-58.48 390.375 55.04 390.375 172 390.375 C172 385.425 172 380.475 172 375.375 C58.48 375.375 -55.04 375.375 -172 375.375 Z M-158 405.375 C-158 425.835 -158 446.295 -158 467.375 C-53.72 467.375 50.56 467.375 158 467.375 C158 446.915 158 426.455 158 405.375 C53.72 405.375 -50.56 405.375 -158 405.375 Z " fill="#000000" transform="translate(256,-0.375)"/>
<path d="M0 0 C6.21679631 5.24297647 11.86198188 10.69905596 17 17 C17.83273437 17.99515625 18.66546875 18.9903125 19.5234375 20.015625 C46.98521486 53.39622538 58.62152704 95.66067688 54.53125 138.515625 C50.70664404 171.64485791 36.73175282 202.32155571 14.04296875 226.74609375 C12.6244739 228.31104887 11.26401964 229.92980725 9.953125 231.5859375 C-11.94298393 258.64952814 -51.47950561 273.91051236 -85 278 C-90.88956468 278.48384225 -96.78210367 278.48744444 -102.6875 278.4375 C-103.46892365 278.43412628 -104.25034729 278.43075256 -105.05545044 278.42727661 C-118.02708754 278.34654953 -130.43268641 277.43866978 -143 274 C-143.86544434 273.76394043 -144.73088867 273.52788086 -145.62255859 273.28466797 C-175.1773072 264.90298666 -203.41947238 247.93175598 -223 224 C-223.83402344 223.00355469 -224.66804688 222.00710938 -225.52734375 220.98046875 C-252.98484729 187.59769358 -264.62151937 145.33924276 -260.53125 102.484375 C-256.70664404 69.35514209 -242.73175282 38.67844429 -220.04296875 14.25390625 C-218.62144455 12.68560899 -217.25727444 11.06419398 -215.94140625 9.40625 C-205.84725188 -3.10481457 -190.04673992 -12.56546501 -176 -20 C-175.07574219 -20.51949219 -174.15148437 -21.03898437 -173.19921875 -21.57421875 C-117.52654906 -51.57603934 -47.51449821 -38.8206129 0 0 Z M-122 -20 C-120.35 -0.2 -118.7 19.6 -117 40 C-119.64 40.33 -122.28 40.66 -125 41 C-134.45983501 43.85446393 -143.26303458 48.45468216 -152 53 C-152.27529541 52.40630615 -152.55059082 51.8126123 -152.83422852 51.20092773 C-153.94469629 49.10441108 -155.08691054 47.55492998 -156.65234375 45.78515625 C-157.17586426 45.18815918 -157.69938477 44.59116211 -158.23876953 43.97607422 C-158.79935059 43.34459473 -159.35993164 42.71311523 -159.9375 42.0625 C-161.12173098 40.71279843 -162.30531424 39.36252829 -163.48828125 38.01171875 C-164.0807666 37.3367334 -164.67325195 36.66174805 -165.28369141 35.96630859 C-167.76115907 33.1279694 -170.19723415 30.25586605 -172.625 27.375 C-173.28097168 26.59745361 -173.28097168 26.59745361 -173.95019531 25.80419922 C-174.83669274 24.752992 -175.72292223 23.70155876 -176.60888672 22.64990234 C-179.13081499 19.65881929 -181.65967056 16.6735957 -184.1875 13.6875 C-185.11851747 12.58726318 -186.04950977 11.48700506 -186.98046875 10.38671875 C-187.64691406 9.59910156 -188.31335938 8.81148437 -189 8 C-194.9710618 12.22140649 -200.22073332 16.88405758 -205.375 22.0625 C-206.44041016 23.10374023 -206.44041016 23.10374023 -207.52734375 24.16601562 C-208.20667969 24.84470703 -208.88601562 25.52339844 -209.5859375 26.22265625 C-210.1948584 26.82859619 -210.8037793 27.43453613 -211.43115234 28.05883789 C-213.20381738 30.25218674 -214.07864732 32.34832297 -215 35 C-209.14271532 40.37447162 -203.17268962 45.54429069 -196.9921875 50.54296875 C-193.57263128 53.35093333 -190.22273949 56.23221893 -186.875 59.125 C-181.70727244 63.58534998 -176.45976963 67.89795086 -171 72 C-172.4867146 75.9670256 -174.3688339 79.5848857 -176.375 83.3125 C-180.32222626 90.88632388 -182.26050504 98.68067629 -184 107 C-184.99 106.67 -185.98 106.34 -187 106 C-188.53048408 105.80378494 -190.06641631 105.64853977 -191.60400391 105.51928711 C-193.00158432 105.39927589 -193.00158432 105.39927589 -194.42739868 105.27684021 C-195.93673477 105.15333946 -195.93673477 105.15333946 -197.4765625 105.02734375 C-198.51638275 104.93997452 -199.556203 104.85260529 -200.62753296 104.7625885 C-202.83145158 104.57841786 -205.03552833 104.39613136 -207.23974609 104.21557617 C-210.59130765 103.9402676 -213.94213792 103.65709506 -217.29296875 103.37304688 C-219.4374604 103.1948353 -221.58199055 103.01708631 -223.7265625 102.83984375 C-225.21768051 102.71330666 -225.21768051 102.71330666 -226.73892212 102.58421326 C-232.51525329 102.11721743 -238.20475064 101.91985214 -244 102 C-245.09419678 108.18308021 -245.14908095 114.23092512 -245.125 120.5 C-245.12886719 121.50675781 -245.13273437 122.51351562 -245.13671875 123.55078125 C-245.12982746 128.80883882 -244.91665587 133.82016683 -244 139 C-230.59348211 138.54367486 -217.24132858 137.60290634 -203.875 136.5 C-202.65846741 136.40143204 -202.65846741 136.40143204 -201.4173584 136.3008728 C-199.08775016 136.1111556 -196.75867296 135.91595032 -194.4296875 135.71875 C-193.72425812 135.66145218 -193.01882874 135.60415436 -192.29202271 135.54512024 C-189.3440903 135.28892942 -186.82110819 134.9403694 -184 134 C-183.79246094 134.99257812 -183.58492187 135.98515625 -183.37109375 137.0078125 C-181.44093859 145.6956625 -178.80518517 153.17202493 -174.5859375 161.01171875 C-173.19331397 163.63575077 -172.0412138 166.22171169 -171 169 C-171.94746094 169.76570313 -171.94746094 169.76570313 -172.9140625 170.546875 C-180.10021995 176.38692226 -187.14737453 182.37266004 -194.16210938 188.41650391 C-197.29298726 191.11401639 -200.42724139 193.80758158 -203.5625 196.5 C-204.41968628 197.23827026 -204.41968628 197.23827026 -205.29418945 197.99145508 C-208.47953904 200.72735264 -211.70369451 203.39733049 -215 206 C-213.63722576 210.0869721 -211.86518114 212.51012743 -208.82421875 215.5390625 C-207.58188477 216.78042969 -207.58188477 216.78042969 -206.31445312 218.046875 C-205.44755859 218.89765625 -204.58066406 219.7484375 -203.6875 220.625 C-202.83220703 221.48351562 -201.97691406 222.34203125 -201.09570312 223.2265625 C-197.24476479 227.04468881 -193.76396737 230.34722294 -189 233 C-184.45046727 228.0417622 -179.98409949 223.04424445 -175.75 217.8125 C-171.00454057 211.9494807 -166.0684861 206.26343347 -161.11328125 200.578125 C-160.60361816 199.99095703 -160.09395508 199.40378906 -159.56884766 198.79882812 C-158.47664784 197.54652058 -157.37675645 196.30089709 -156.27099609 195.06054688 C-155.44656006 194.1256543 -155.44656006 194.1256543 -154.60546875 193.171875 C-154.1055542 192.61081055 -153.60563965 192.04974609 -153.09057617 191.47167969 C-151.80153876 190.03747281 -151.80153876 190.03747281 -152 188 C-151.41621582 188.28721924 -150.83243164 188.57443848 -150.23095703 188.87036133 C-147.53275526 190.19229375 -144.82897534 191.5024203 -142.125 192.8125 C-140.74828125 193.49022461 -140.74828125 193.49022461 -139.34375 194.18164062 C-132.19133135 197.63192709 -125.04958778 201 -117 201 C-119.475 230.7 -119.475 230.7 -122 261 C-111.55267858 264.48244047 -94.42371737 264.47457246 -84 261 C-86.475 231.3 -86.475 231.3 -89 201 C-86.36 200.67 -83.72 200.34 -81 200 C-77.33194921 198.84073102 -77.33194921 198.84073102 -73.75 197.3125 C-73.11247803 197.05065918 -72.47495605 196.78881836 -71.81811523 196.51904297 C-65.729164 193.97560495 -59.84199006 191.0678607 -54 188 C-53.58705688 188.89054077 -53.58705688 188.89054077 -53.16577148 189.79907227 C-52.05530371 191.89558892 -50.91308946 193.44507002 -49.34765625 195.21484375 C-48.82413574 195.81184082 -48.30061523 196.40883789 -47.76123047 197.02392578 C-47.20064941 197.65540527 -46.64006836 198.28688477 -46.0625 198.9375 C-44.87826902 200.28720157 -43.69468576 201.63747171 -42.51171875 202.98828125 C-41.9192334 203.6632666 -41.32674805 204.33825195 -40.71630859 205.03369141 C-38.23884093 207.8720306 -35.80276585 210.74413395 -33.375 213.625 C-32.93768555 214.14336426 -32.50037109 214.66172852 -32.04980469 215.19580078 C-31.16330726 216.247008 -30.27707777 217.29844124 -29.39111328 218.35009766 C-26.86918501 221.34118071 -24.34032944 224.3264043 -21.8125 227.3125 C-20.88148253 228.41273682 -19.95049023 229.51299494 -19.01953125 230.61328125 C-18.35308594 231.40089844 -17.68664062 232.18851563 -17 233 C-11.0289382 228.77859351 -5.77926668 224.11594242 -0.625 218.9375 C0.08527344 218.24333984 0.79554688 217.54917969 1.52734375 216.83398438 C2.54634766 215.81594727 2.54634766 215.81594727 3.5859375 214.77734375 C4.1948584 214.17140381 4.8037793 213.56546387 5.43115234 212.94116211 C7.20381738 210.74781326 8.07864732 208.65167703 9 206 C3.14271532 200.62552838 -2.82731038 195.45570931 -9.0078125 190.45703125 C-12.42736872 187.64906667 -15.77726051 184.76778107 -19.125 181.875 C-24.29272756 177.41465002 -29.54023037 173.10204914 -35 169 C-33.5132854 165.0329744 -31.6311661 161.4151143 -29.625 157.6875 C-25.67777374 150.11367612 -23.73949496 142.31932371 -22 134 C-21.01 134.33 -20.02 134.66 -19 135 C-17.43358963 135.19667948 -15.86176112 135.35172055 -14.28833008 135.48071289 C-13.33336136 135.56072037 -12.37839264 135.64072784 -11.39448547 135.72315979 C-9.84763313 135.84666054 -9.84763313 135.84666054 -8.26953125 135.97265625 C-7.20514328 136.06002548 -6.14075531 136.14739471 -5.04411316 136.2374115 C-2.78891595 136.42157598 -0.53356474 136.60386276 1.72192383 136.78442383 C5.15686051 137.0600415 8.59113028 137.34304638 12.02539062 137.62695312 C14.21871381 137.80513352 16.41207216 137.98288172 18.60546875 138.16015625 C20.13713936 138.28669334 20.13713936 138.28669334 21.69975281 138.41578674 C27.15448745 138.84765303 32.52827495 139.08735582 38 139 C39.09419678 132.81691979 39.14908095 126.76907488 39.125 120.5 C39.12886719 119.49324219 39.13273437 118.48648438 39.13671875 117.44921875 C39.12982746 112.19116118 38.91665587 107.17983317 38 102 C24.78574854 102.48692922 11.61640979 103.44543965 -1.5625 104.5 C-2.39921234 104.56571198 -3.23592468 104.63142395 -4.09799194 104.6991272 C-6.5044914 104.88896125 -8.91048848 105.08419518 -11.31640625 105.28125 C-12.04689178 105.33854782 -12.77737732 105.39584564 -13.52999878 105.45487976 C-16.53707406 105.7072485 -19.12365674 106.04121891 -22 107 C-22.20753906 106.00742188 -22.41507813 105.01484375 -22.62890625 103.9921875 C-24.55906141 95.3043375 -27.19481483 87.82797507 -31.4140625 79.98828125 C-32.80668603 77.36424923 -33.9587862 74.77828831 -35 72 C-34.36835938 71.48953125 -33.73671875 70.9790625 -33.0859375 70.453125 C-26.4895552 65.09237627 -20.01293422 59.6099549 -13.5703125 54.06640625 C-10.06123017 51.04805765 -6.53426654 48.05129808 -3 45.0625 C-2.48453613 44.62631348 -1.96907227 44.19012695 -1.43798828 43.74072266 C2.02831838 40.81133821 5.5110212 37.9022904 9 35 C7.63722576 30.9130279 5.86518114 28.48987257 2.82421875 25.4609375 C1.58188477 24.21957031 1.58188477 24.21957031 0.31445312 22.953125 C-0.55244141 22.10234375 -1.41933594 21.2515625 -2.3125 20.375 C-3.59543945 19.08722656 -3.59543945 19.08722656 -4.90429688 17.7734375 C-8.75523521 13.95531119 -12.23603263 10.65277706 -17 8 C-21.54953273 12.9582378 -26.01590051 17.95575555 -30.25 23.1875 C-34.99545943 29.0505193 -39.9315139 34.73656653 -44.88671875 40.421875 C-45.39638184 41.00904297 -45.90604492 41.59621094 -46.43115234 42.20117188 C-47.52335216 43.45347942 -48.62324355 44.69910291 -49.72900391 45.93945312 C-50.55343994 46.8743457 -50.55343994 46.8743457 -51.39453125 47.828125 C-52.14440308 48.66972168 -52.14440308 48.66972168 -52.90942383 49.52832031 C-54.19846124 50.96252719 -54.19846124 50.96252719 -54 53 C-54.98097656 52.48050781 -55.96195313 51.96101563 -56.97265625 51.42578125 C-72.25567262 43.18794626 -72.25567262 43.18794626 -89 40 C-87.35 20.2 -85.7 0.4 -84 -20 C-87.31905737 -21.65952869 -91.03198896 -21.43553646 -94.6875 -21.625 C-95.95678345 -21.69146729 -95.95678345 -21.69146729 -97.25170898 -21.75927734 C-109.95458711 -22.72023804 -109.95458711 -22.72023804 -122 -20 Z M-174 -3 C-174 1.72154218 -173.28816193 2.33466173 -170.3125 5.8125 C-169.49910156 6.7715625 -168.68570313 7.730625 -167.84765625 8.71875 C-166.89937379 9.81331187 -165.9500886 10.90700551 -165 12 C-163.89435437 13.28109737 -162.7888933 14.56235403 -161.68359375 15.84375 C-159.46773298 18.40834258 -157.24425241 20.96603103 -155.015625 23.51953125 C-152.2968009 26.64201219 -149.6384724 29.80940282 -147 33 C-142.71 31.35 -138.42 29.7 -134 28 C-134.5953773 12.95888935 -135.65521822 -2.00773851 -137 -17 C-149.48483927 -17 -163.10360699 -8.40315549 -174 -3 Z M-69 -17 C-69.43215587 -12.03825297 -69.85920792 -7.07610139 -70.28173828 -2.11352539 C-70.42587753 -0.42883743 -70.57135921 1.25573629 -70.71826172 2.94018555 C-70.93037789 5.37519263 -71.13750386 7.81058326 -71.34375 10.24609375 C-71.40937134 10.98709824 -71.47499268 11.72810272 -71.54260254 12.49156189 C-71.97512632 17.67695194 -72.05399309 22.7964157 -72 28 C-67.71 29.65 -63.42 31.3 -59 33 C-53.60466338 27.0908218 -48.37240074 21.1162395 -43.35546875 14.8828125 C-41.65637423 12.80332369 -39.93959136 10.76497685 -38.17578125 8.7421875 C-37.70906006 8.20126465 -37.24233887 7.6603418 -36.76147461 7.10302734 C-35.43857386 5.57350343 -34.10623389 4.0521588 -32.7734375 2.53125 C-32.18820312 1.6959375 -31.60296875 0.860625 -31 0 C-31.6737725 -3.05860892 -31.6737725 -3.05860892 -33.83496094 -4.19506836 C-34.62676758 -4.57284424 -35.41857422 -4.95062012 -36.234375 -5.33984375 C-37.11303223 -5.76152832 -37.99168945 -6.18321289 -38.89697266 -6.61767578 C-39.83847168 -7.05321777 -40.7799707 -7.48875977 -41.75 -7.9375 C-43.17578369 -8.60628174 -43.17578369 -8.60628174 -44.63037109 -9.28857422 C-56.3609695 -14.88349928 -56.3609695 -14.88349928 -69 -17 Z M-225 48 C-229.40775344 54.83268771 -232.88003094 61.68430814 -235.8125 69.25 C-236.1019751 69.99362793 -236.3914502 70.73725586 -236.68969727 71.50341797 C-238.49044796 76.27681124 -239.84752156 81.0302881 -241 86 C-226.02553009 87.69590382 -211.02949835 88.90547383 -196 90 C-195.10604671 88.09209968 -194.23540666 86.17326194 -193.375 84.25 C-192.88773438 83.18265625 -192.40046875 82.1153125 -191.8984375 81.015625 C-190.73679507 78.13011855 -190.73679507 78.13011855 -191.67651367 75.77368164 C-193.82467319 72.8948071 -196.56016209 70.71084906 -199.3125 68.4375 C-199.93116943 67.91808838 -200.54983887 67.39867676 -201.18725586 66.86352539 C-202.47764038 65.78031044 -203.77007168 64.69952944 -205.06445312 63.62109375 C-206.93610373 62.05351554 -208.79099389 60.46846628 -210.640625 58.875 C-211.21643311 58.3807251 -211.79224121 57.8864502 -212.38549805 57.37719727 C-213.47462346 56.44218889 -214.56212364 55.50528285 -215.64770508 54.56616211 C-218.61286937 52.0394305 -221.60021175 49.90263379 -225 48 Z M11.75 53.3125 C10.47427402 54.41442808 9.19822477 55.515982 7.921875 56.6171875 C7.27025391 57.18018555 6.61863281 57.74318359 5.94726562 58.32324219 C2.97951884 60.87871924 -0.0085284 63.40987357 -3 65.9375 C-3.5146582 66.37296143 -4.02931641 66.80842285 -4.55957031 67.25708008 C-8.02656065 70.18735148 -11.51018008 73.09700992 -15 76 C-14.54363464 77.396478 -14.08480512 78.7921508 -13.625 80.1875 C-13.36976563 80.96480469 -13.11453125 81.74210937 -12.8515625 82.54296875 C-11.97789204 85.06378857 -10.99814789 87.52625081 -10 90 C-4.55539808 89.59453469 0.88891917 89.18549311 6.33300781 88.77319336 C8.18352049 88.63354729 10.03410609 88.49486392 11.88476562 88.35717773 C14.55098086 88.15864504 17.21691122 87.95660596 19.8828125 87.75390625 C20.70492218 87.6934462 21.52703186 87.63298615 22.37405396 87.57069397 C26.63247506 87.24334506 30.79497019 86.78363776 35 86 C32.57633753 77.60094851 29.9343446 69.39589321 26.4375 61.375 C26.15704834 60.7253125 25.87659668 60.075625 25.58764648 59.40625 C23.74295573 55.27910898 21.65005493 51.64172453 19 48 C16.55651808 48 13.61491657 51.69032879 11.75 53.3125 Z M-10 151 C-10.89395329 152.90790032 -11.76459334 154.82673806 -12.625 156.75 C-13.11226562 157.81734375 -13.59953125 158.8846875 -14.1015625 159.984375 C-15.2623113 162.86881419 -15.2623113 162.86881419 -14.32788086 165.22192383 C-12.14360265 168.14674424 -9.35684109 170.37314116 -6.5625 172.6875 C-5.93722412 173.21351807 -5.31194824 173.73953613 -4.66772461 174.28149414 C-2.78448441 175.86168971 -0.89319625 177.43175534 1 179 C2.04169754 179.86975469 3.08336661 180.73954348 4.125 181.609375 C8.95737731 185.60950955 13.833657 189.44096371 19 193 C23.40775344 186.16731229 26.88003094 179.31569186 29.8125 171.75 C30.1019751 171.00637207 30.3914502 170.26274414 30.68969727 169.49658203 C32.49044796 164.72318876 33.84752156 159.9697119 35 155 C20.0363419 153.16132829 5.03792346 152.04137034 -10 151 Z M-206.078125 151.62109375 C-206.88231873 151.68531021 -207.68651245 151.74952667 -208.51507568 151.81568909 C-210.2198858 151.95226507 -211.92465781 152.08931752 -213.62939453 152.22680664 C-216.22539943 152.43552215 -218.82167201 152.64065441 -221.41796875 152.84570312 C-223.07553875 152.97894402 -224.73309141 153.11240069 -226.390625 153.24609375 C-227.16271301 153.3065538 -227.93480103 153.36701385 -228.73028564 153.42930603 C-232.86567406 153.76733871 -236.91391265 154.2483447 -241 155 C-238.57633753 163.39905149 -235.9343446 171.60410679 -232.4375 179.625 C-232.15704834 180.2746875 -231.87659668 180.924375 -231.58764648 181.59375 C-229.74309184 185.7205865 -227.58792987 189.31913694 -225 193 C-220.27340942 190.00528993 -216.12405501 186.64147719 -211.9375 182.9375 C-210.62297848 181.78579298 -209.30786207 180.63476463 -207.9921875 179.484375 C-207.33186523 178.90623047 -206.67154297 178.32808594 -205.99121094 177.73242188 C-202.8739958 175.02033769 -199.72091918 172.3513813 -196.5625 169.6875 C-196.00103271 169.21368896 -195.43956543 168.73987793 -194.86108398 168.25170898 C-193.57471316 167.16702614 -192.28746633 166.0833823 -191 165 C-192.54269924 160.27934033 -194.07794619 155.58335908 -196 151 C-199.36878999 151 -202.72169654 151.35228053 -206.078125 151.62109375 Z M-147 208 C-152.39533662 213.9091782 -157.62759926 219.8837605 -162.64453125 226.1171875 C-164.34362577 228.19667631 -166.06040864 230.23502315 -167.82421875 232.2578125 C-168.29093994 232.79873535 -168.75766113 233.3396582 -169.23852539 233.89697266 C-170.56142614 235.42649657 -171.89376611 236.9478412 -173.2265625 238.46875 C-173.81179687 239.3040625 -174.39703125 240.139375 -175 241 C-174.33475633 244.01466749 -174.33475633 244.01466749 -172.38037109 245.08740234 C-171.68508301 245.41691895 -170.98979492 245.74643555 -170.2734375 246.0859375 C-169.10651367 246.64293335 -169.10651367 246.64293335 -167.91601562 247.21118164 C-167.07748047 247.5952417 -166.23894531 247.97930176 -165.375 248.375 C-164.52357422 248.77130615 -163.67214844 249.1676123 -162.79492188 249.57592773 C-150.33822645 255.55772579 -150.33822645 255.55772579 -137 258 C-136.56784413 253.03825297 -136.14079208 248.07610139 -135.71826172 243.11352539 C-135.57412247 241.42883743 -135.42864079 239.74426371 -135.28173828 238.05981445 C-135.06962211 235.62480737 -134.86249614 233.18941674 -134.65625 230.75390625 C-134.55781799 229.64239952 -134.55781799 229.64239952 -134.45739746 228.50843811 C-134.02487368 223.32304806 -133.94600691 218.2035843 -134 213 C-138.29 211.35 -142.58 209.7 -147 208 Z M-66.0625 210.5 C-67.71958984 211.19609375 -67.71958984 211.19609375 -69.41015625 211.90625 C-70.26480469 212.2671875 -71.11945313 212.628125 -72 213 C-71.4046227 228.04111065 -70.34478178 243.00773851 -69 258 C-62.04818755 256.86046382 -55.88285197 255.00900198 -49.4375 252.1875 C-48.65181641 251.85685547 -47.86613281 251.52621094 -47.05664062 251.18554688 C-41.49712005 248.80158785 -36.23486238 246.02692937 -31 243 C-32.40839495 238.70554982 -34.45854776 236.12953521 -37.5625 232.875 C-41.87430713 228.25875692 -45.91248975 223.50682884 -49.88671875 218.59375 C-54.29847146 213.17017922 -54.29847146 213.17017922 -59 208 C-61.33521425 208 -63.97141001 209.61954106 -66.0625 210.5 Z " fill="#000000" transform="translate(359,67)"/>
<path d="M0 0 C9.20127458 6.59846755 14.94250495 14.81039228 17 26 C18.12933769 36.94906661 16.31942481 46.88526079 9.75 55.875 C3.57146111 63.12920808 -4.32510881 69.070444 -14.01171875 70.24365234 C-26.64020371 71.24107914 -36.93726366 69.49917185 -46.9375 61.1875 C-55.19189605 53.2017823 -59.02608985 44.10334306 -59.4375 32.625 C-59.13034017 21.74642265 -55.59590319 12.81337281 -48 5 C-35.01789247 -7.06445336 -15.25548414 -9.40375365 0 0 Z M-37.8125 17.8125 C-42.05017791 23.9874021 -44.26261226 29.54573146 -43 37 C-40.59457006 44.37219731 -36.74219106 49.1775444 -30 53 C-23.8611364 55.04628787 -16.49983235 55.10571965 -10.5625 52.375 C-4.55144156 48.82074345 -1.11516403 43.56814093 1 37 C2.22363018 29.79268375 0.1832805 23.90463037 -4 18 C-10.19149876 12.04941559 -15.43787156 10.63043882 -23.921875 10.72265625 C-29.96833317 11.26745134 -33.58147307 13.58147307 -37.8125 17.8125 Z " fill="#000000" transform="translate(277,155)"/>
<path d="M0 0 C5.28 0 10.56 0 16 0 C16 4.95 16 9.9 16 15 C10.72 15 5.44 15 0 15 C0 10.05 0 5.1 0 0 Z " fill="#000000" transform="translate(248,497)"/>
<path d="M0 0 C5.28 0 10.56 0 16 0 C16 4.95 16 9.9 16 15 C10.72 15 5.44 15 0 15 C0 10.05 0 5.1 0 0 Z " fill="#000000" transform="translate(383,420)"/>
<path d="M0 0 C5.28 0 10.56 0 16 0 C16 4.95 16 9.9 16 15 C10.72 15 5.44 15 0 15 C0 10.05 0 5.1 0 0 Z " fill="#000000" transform="translate(353,420)"/>
</svg>
